<?xml version="1.0" encoding="UTF-8"?>
<svg width="64px" height="64px" viewBox="0 0 64 64" version="1.1" xmlns="http://www.w3.org/2000/svg" xmlns:xlink="http://www.w3.org/1999/xlink">
    <!-- Generator: Sketch 41.2 (35397) - http://www.bohemiancoding.com/sketch -->
    <title>icon/backend/ci/circleci</title>
    <desc>Created with Sketch.</desc>
    <defs></defs>
    <g id="Icons" stroke="none" stroke-width="1" fill="none" fill-rule="evenodd" stroke-linecap="round" stroke-opacity="0.4" stroke-linejoin="round">
        <g id="icon/backend/ci/circleci" stroke="#000000" stroke-width="0.5">
            <g id="outline">
                <ellipse id="line" cx="31.5428571" cy="32" rx="7.58857143" ry="7.58857143"></ellipse>
                <path d="M31.5428571,0 C16.64,0 4.11428571,10.24 0.548571429,23.9542857 C0.548571429,24.0457143 0.457142857,24.2285714 0.457142857,24.32 C0.457142857,25.1428571 1.09714286,25.8742857 2.01142857,25.8742857 L14.9028571,25.8742857 C15.5428571,25.8742857 16,25.5085714 16.2742857,24.96 L16.2742857,24.8685714 C18.9257143,19.1085714 24.7771429,15.1771429 31.4514286,15.1771429 C40.6857143,15.1771429 48.1828571,22.6742857 48.1828571,31.9085714 C48.1828571,41.1428571 40.6857143,48.64 31.4514286,48.64 C24.6857143,48.64 18.9257143,44.6171429 16.2742857,38.9485714 L16.2742857,38.8571429 C16,38.3085714 15.5428571,37.9428571 14.9028571,37.9428571 L2.01142857,37.9428571 C1.18857143,37.9428571 0.457142857,38.5828571 0.457142857,39.4971429 C0.457142857,39.5885714 0.457142857,39.7714286 0.548571429,39.8628571 C4.11428571,53.76 16.64,64 31.5428571,64 C49.1885714,64 63.5428571,49.6457143 63.5428571,32 C63.5428571,14.3542857 49.1885714,0 31.5428571,0 Z" id="line"></path>
            </g>
        </g>
    </g>
</svg>