<?xml version="1.0" encoding="UTF-8"?>
<svg width="64px" height="64px" viewBox="0 0 64 64" version="1.1" xmlns="http://www.w3.org/2000/svg" xmlns:xlink="http://www.w3.org/1999/xlink">
    <!-- Generator: Sketch 41.2 (35397) - http://www.bohemiancoding.com/sketch -->
    <title>icon/backend/ci/jenkins</title>
    <desc>Created with Sketch.</desc>
    <defs></defs>
    <g id="Icons" stroke="none" stroke-width="1" fill="none" fill-rule="evenodd" stroke-linecap="round" stroke-opacity="0.4" stroke-linejoin="round">
        <g id="icon/backend/ci/jenkins" stroke="#000000" stroke-width="0.5">
            <g id="outline" transform="translate(14.000000, 3.000000)">
                <path d="M29.0554418,39.853718 C30.9252684,38.9241688 34.41891,37.3517295 35.5911643,39.8571399 C36.0237655,40.7806544 36.53128,42.3417873 36.7553262,43.2951053 C37.071858,44.6400301 36.4122048,47.4668972 35.0297771,47.9182035 C33.8087366,48.31677 32.3839967,48.2924925 30.9132453,47.9970475 C30.7400661,47.8530012 30.5472337,47.6019029 30.412436,47.3401688 C29.3622626,47.299429 28.37891,47.3965388 27.5493146,47.8282382 C27.6279274,48.6048856 27.1026094,48.729533 26.6101239,48.8894868 C26.2450372,50.3370937 27.3405285,52.2275446 27.078332,53.5475446 C26.89128,54.4879376 25.7342857,54.633348 24.8838811,54.8092787 C24.8561354,55.3318683 24.9211065,55.7680972 24.9791412,56.2102035 C24.7846904,56.926696 23.9125516,57.3345712 23.0861932,57.4344625 C20.3673493,57.7614137 16.2391875,57.9082708 13.6240198,56.9678798 C12.8942626,55.1778798 12.3193724,53.0007469 11.7115343,50.95677 C9.16096781,51.2291631 7.09810076,49.8562382 5.153384,48.95677 C4.48006608,48.6446313 3.54862099,48.4726775 3.29708342,47.9367238 C3.05322215,47.4178336 3.15301406,46.4233596 3.09250539,45.4839607 C2.93851695,43.0846544 2.80665567,40.7704347 2.1730603,38.3137873 C1.88857475,37.2113827 1.39271348,36.2386428 1.0467944,35.1764232 C0.727071859,34.1919376 0.168459143,32.9752902 0.0227712814,31.9935561 C-0.19325184,30.5385272 1.17685221,30.4576024 2.05294469,29.8270821 C3.40725683,28.8520532 4.47030885,28.3128625 5.9370603,27.4328625 C6.37148804,27.1722844 7.68156897,26.5126313 7.83058631,26.2088162 C8.12681752,25.6065041 7.32210076,24.7572555 7.10695625,24.2851168 C6.76663255,23.5385272 6.58915278,22.9043076 6.54038978,22.1676602 C5.30998515,21.9732093 4.37726839,21.240955 3.81386955,20.4152902 C2.88189267,19.0488162 2.23555741,16.5207238 3.04191579,14.597718 C3.10515278,14.4462729 3.42052851,14.1484694 3.46704874,13.9158683 C3.55881752,13.4578336 3.2943551,12.8488162 3.27791579,12.3616486 C3.19319903,9.86222664 3.70080596,7.70870063 5.38341868,6.9549434 C6.06649382,4.23378734 8.51130307,3.32904745 10.8146788,1.97667751 C11.6756961,1.47124398 12.6248291,1.1482382 13.6050603,0.787544561 C17.1214071,-0.506559485 22.5164823,-0.262860063 25.4348638,1.94430757 C26.6723204,2.88026132 28.6503551,4.8564463 29.3578695,6.28719774 C31.2265401,10.0645388 31.0938233,16.3773712 29.7867713,20.9722844 C29.6110487,21.5891631 29.3562511,22.4959839 29.0004129,23.2370243 C28.7523204,23.754481 27.9812221,24.7898567 28.0748638,25.2467353 C28.17128,25.7191053 29.8330141,26.9808394 30.1893146,27.3244232 C30.8309331,27.9433827 32.0498927,28.7648856 32.148621,29.5459261 C32.2547482,30.3771399 31.7823782,31.5142498 31.5430719,32.3163307 C30.7430719,34.9930706 29.9624938,37.4673365 29.0554418,39.853718 L29.0554418,39.853718 Z" id="line"></path>
            </g>
        </g>
    </g>
</svg>