<?xml version="1.0" encoding="UTF-8"?>
<svg width="64px" height="64px" viewBox="0 0 64 64" version="1.1" xmlns="http://www.w3.org/2000/svg" xmlns:xlink="http://www.w3.org/1999/xlink">
    <!-- Generator: Sketch 41.2 (35397) - http://www.bohemiancoding.com/sketch -->
    <title>icon/backend/ci/mocha</title>
    <desc>Created with Sketch.</desc>
    <defs></defs>
    <g id="Icons" stroke="none" stroke-width="1" fill="none" fill-rule="evenodd" stroke-linecap="round" stroke-opacity="0.4" stroke-linejoin="round">
        <g id="icon/backend/ci/mocha" stroke="#000000" stroke-width="0.5">
            <g id="outline" transform="translate(16.000000, 2.000000)">
                <path d="M36.0324499,23.2446269 C36.0324499,22.3869136 35.3462793,21.5292003 34.3170234,21.5292003 L18.1920138,21.5292003 L2.06700418,21.5292003 C1.20929091,21.5292003 0.351577629,22.2153709 0.351577629,23.2446269 C0.351577629,29.0770771 1.20929091,49.1475678 9.78642367,58.9254992 C10.129509,59.2685845 10.4725943,59.4401271 10.9872223,59.4401271 L25.3968053,59.4401271 C25.9114333,59.4401271 26.2545186,59.2685845 26.5976039,58.9254992 C35.1747367,49.3191105 36.0324499,29.2486198 36.0324499,23.2446269 Z" id="line"></path>
                <path d="M21.4513242,18.0983472 C21.4513242,18.0983472 27.6268598,14.4959514 23.8529214,7.97733054 C21.6228669,4.54647744 20.593611,1.6302523 21.4513242,0.42945371 C19.2212697,3.17413619 15.4473313,6.09036133 19.564355,12.2658969 C20.9366963,13.8097808 21.6228669,17.0690913 21.4513242,18.0983472 Z" id="line"></path>
                <path d="M14.589618,18.6129752 C14.589618,18.6129752 18.7066417,16.211378 16.1335019,11.751269 C14.589618,9.52121444 13.9034474,7.46270258 14.589618,6.77653196 C13.0457341,8.66350116 10.6441369,10.5504704 13.3888194,14.8390368 C14.2465327,15.69675 14.589618,17.9268045 14.589618,18.6129752 Z" id="line"></path>
                <path d="M28.6561158,38.5119232 C27.9699451,43.1435749 26.5976039,48.4613972 23.6813787,51.8922503 C23.3382934,52.2353356 22.9952081,52.4068783 22.6521228,52.4068783 L14.0749901,52.4068783 C13.7319047,52.4068783 13.2172768,52.2353356 13.0457341,51.8922503 C10.9872223,49.3191105 9.61488101,45.8882574 8.75716774,42.2858616 C8.75716774,42.2858616 18.7066417,43.6582028 24.3675494,41.599691 C28.4845731,40.0558071 28.6561158,38.5119232 28.6561158,38.5119232 Z" id="line"></path>
            </g>
        </g>
    </g>
</svg>