<svg xmlns="http://www.w3.org/2000/svg" viewBox="0 0 62.2 75"><defs><style>.a{fill:#f58536;}.b{fill:#9d5025;}.c{fill:#6b3a19;}.d{fill:#f37825;}.e{fill:#924821;}</style></defs><title>Networking_AmazonRoute53</title><polygon class="a" points="44.2 68.4 31 75 31 0 44.2 6.6 44.2 68.4"/><polygon class="b" points="17.9 68.4 31 75 31 0 17.9 6.6 17.9 68.4"/><polygon class="a" points="26.1 27.3 4 24.5 4 13.5 26.1 18.8 26.1 27.3"/><polygon class="b" points="0 15.5 4 13.5 4 24.5 0 25.6 0 15.5"/><polygon class="c" points="26.1 27.3 21.5 28 0 25.6 4 24.5 26.1 27.3"/><polygon class="d" points="58.9 46.9 62.2 46.3 62.2 37.5 58.9 37.5 58.9 46.9"/><polygon class="e" points="35.9 44.9 58.9 47.1 58.9 37.5 35.9 37.5 35.9 44.9"/></svg>