<?xml version="1.0" encoding="UTF-8" standalone="no"?>
<svg width="355px" height="429px" viewBox="0 0 355 429" version="1.1" xmlns="http://www.w3.org/2000/svg" xmlns:xlink="http://www.w3.org/1999/xlink" xmlns:sketch="http://www.bohemiancoding.com/sketch/ns">
    <!-- Generator: Sketch 3.3.3 (12081) - http://www.bohemiancoding.com/sketch -->
    <title>Management-Tools_AWSCloudFormation</title>
    <desc>Created with Sketch.</desc>
    <defs></defs>
    <g id="Page-1" stroke="none" stroke-width="1" fill="none" fill-rule="evenodd" sketch:type="MSPage">
        <g id="Artboard-19" sketch:type="MSArtboardGroup" transform="translate(-598.000000, -1057.000000)">
            <g id="Management-Tools_AWSCloudFormation" sketch:type="MSLayerGroup" transform="translate(601.000000, 1057.500000)">
                <path d="M71.4908387,329.903563 L12.8110599,315.394651 L12.8110599,112.495301 L71.4908387,101.126913 L71.4908387,329.903563" id="Fill-1" fill="#6F953F" sketch:type="MSShapeGroup"></path>
                <path d="M23.2905069,292.775708 L175.696,405.798699 L175.696,312.14654 L71.4908387,286.002833 L23.2905069,292.775708" id="Fill-2" fill="#B2C495" sketch:type="MSShapeGroup"></path>
                <path d="M276.975115,312.151663 L334.686378,315.394651 L336.290323,124.237684 L276.975115,105.348433 L276.975115,312.151663" id="Fill-3" fill="#45592C" sketch:type="MSShapeGroup"></path>
                <path d="M175.696,113.642899 L71.4908387,137.926883 L23.2905069,131.159132 L175.696,21.1332142 L175.696,113.642899" id="Fill-4" fill="#36422A" sketch:type="MSShapeGroup"></path>
                <path d="M325.175447,292.775708 L172.769954,398.969469 L172.769954,312.14654 L276.969991,286.002833 L325.175447,292.775708" id="Fill-5" fill="#B2C495" sketch:type="MSShapeGroup"></path>
                <path d="M172.769954,113.642899 L276.975115,137.926883 L325.175447,131.159132 L174.230415,16.6504112 L172.769954,113.642899" id="Fill-6" fill="#36422A" sketch:type="MSShapeGroup"></path>
                <path d="M123.421751,322.823296 L23.2905069,292.775708 L23.2905069,131.159132 L123.421751,101.126913 L123.421751,322.823296 L123.421751,322.823296 Z M174.025438,1.09124234 L0.963391705,88.4264916 L1.04025806,335.569826 L174.025438,422.853843 L218.110857,214.856906 L174.025438,1.09124234 L174.025438,1.09124234 Z" id="Fill-7" fill="#45592C" sketch:type="MSShapeGroup"></path>
                <path d="M225.044203,101.126913 L325.175447,131.159132 L325.175447,292.775708 L225.044203,322.823296 L225.044203,101.126913 L225.044203,101.126913 Z M174.025438,422.853843 L347.425696,335.569826 L347.497438,88.4264916 L174.025438,1.09124234 L174.025438,422.853843 L174.025438,422.853843 Z" id="Fill-8" fill="#6F953F" sketch:type="MSShapeGroup"></path>
            </g>
        </g>
    </g>
</svg>