<svg xmlns="http://www.w3.org/2000/svg" viewBox="0 0 68.2 82.4"><defs><style>.a{fill:#3c4929;}.b{fill:#b7ca9d;}.c{fill:#4b612c;}.d{fill:#759c3e;}</style></defs><title>Management-Tools_AWSCloudTrail</title><polygon class="a" points="9.7 36.6 7.5 36.7 0 36.4 2.1 26.1 9.7 36.6"/><polygon class="b" points="9.7 46.2 7.5 46 0 46.3 2.1 56.6 9.7 46.2"/><polygon class="c" points="2.1 46.5 0 46.3 0 56 2.1 56.6 2.1 46.5"/><polygon class="d" points="9.7 55.6 2.1 56.6 2.1 46.5 9.7 46.2 9.7 55.6"/><polygon class="b" points="23.7 47 17.6 46.5 6.8 47 12.6 65.5 23.7 47"/><polygon class="c" points="2.1 36.2 0 36.4 0 26.7 2.1 26.1 2.1 36.2"/><polygon class="d" points="9.7 27.1 2.1 26.1 2.1 36.2 9.7 36.6 9.7 27.1"/><polygon class="a" points="23.7 35.8 17.6 36.2 6.8 35.7 12.6 17.2 23.7 35.8"/><polygon class="c" points="6.8 19.2 12.6 17.2 12.6 35.1 6.8 35.7 6.8 19.2"/><polygon class="d" points="23.7 19.7 12.6 17.2 12.6 35.1 23.7 35.8 23.7 19.7"/><polygon class="c" points="6.8 63.4 12.6 65.5 12.6 47.6 6.8 47 6.8 63.4"/><polygon class="d" points="23.7 63.2 12.6 65.5 12.6 47.6 23.7 47 23.7 63.2"/><polygon class="c" points="19.7 75.2 34.1 82.4 67.9 41.2 34.1 0 19.7 7.2 19.7 75.2"/><polygon class="d" points="68.2 65.3 34.1 82.4 34.1 0 68.2 17.1 68.2 65.3"/></svg>