<svg xmlns="http://www.w3.org/2000/svg" width="100" height="100" viewBox="0 0 100 100"><style>.st0{fill:#692F56;} .st1{clip-path:url(#SVGID_2_);} .st2{fill:#AD688B;} .st3{fill:#8D090A;} .st4{fill:#EA2227;} .st5{fill:#FFFFFF;} .st6{fill:#CFB2C1;} .st7{fill:#512843;} .st8{fill:#875078;} .st9{clip-path:url(#SVGID_4_);} .st10{fill:#AD688A;} .st11{fill:#F58435;} .st12{fill:#DF5343;} .st13{fill:url(#SVGID_5_);} .st14{fill:#6A3056;} .st15{fill:none;}</style><g id="Layer_1"><path class="st8" d="M42.2 77.8l-7.1-2-6.7-7.6 7.5.6z"/><path class="st2" d="M42.2 77.8l5.1-10.6-4.8-.7-6.6 2.3z"/><path class="st8" d="M25.8 72.8l-4-1.1-4.4-5.1 4.7.8z"/><path class="st2" d="M25.8 72.8l2.9-6-2.7-.4-3.9 1z"/><path class="st0" d="M15.7 66.8l4.1.9 19.9-17.4-19.9-19.4-4.1 2z"/><path class="st2" d="M35.5 34.3v31.9l-15.7 1.5V30.9z"/><path class="st0" d="M24.8 68.7l7 1.4 19.3-22.3-19.3-23-7 3.5z"/><path class="st2" d="M71.6 37.5V65l-39.8 5.1V24.8z"/><path class="st8" d="M64.4 84.4l-10-2.9-9.6-10.8 10.7.9z"/><path class="st2" d="M64.4 84.4l7.2-15.1-6.7-1-9.4 3.3z"/><path class="st0" d="M39.7 71.6l10.3 2 13.9-29-13.9-29-10.3 5.2z"/><path class="st2" d="M50 73.6l34.3-6.9V32.8L50 15.6z"/></g></svg>