<svg version="1" xmlns="http://www.w3.org/2000/svg" viewBox="0 0 50 50"><path fill="#FE4365" d="M13.787 32.154l35.087-12.77a.518.518 0 0 0-.012-.565l-.527-.762-.003-.007L40.62 6.91a.524.524 0 0 0-.43-.225H10.057a.995.995 0 0 0-.817.43l-8.1 11.703a.523.523 0 0 0 .06.666l12.59 12.668z"/><path fill="#E43C5A" d="M2.448 20.744L40.574 6.868a.52.52 0 0 0-.384-.185H10.06a.995.995 0 0 0-.82.43l-8.1 11.705a.523.523 0 0 0 .06.666l1.25 1.258z"/><path fill="#444" d="M49.698 18.24l-.527-.762c0-.002 0-.004-.002-.006L41.455 6.33l-.002-.002a1.542 1.542 0 0 0-1.265-.66H10.06a2.024 2.024 0 0 0-1.655.866l-6.44 9.303-1.132 1.636-.53.766a1.54 1.54 0 0 0 .173 1.963l23.682 23.83a1.014 1.014 0 0 0 1.437.005c.057-.057.088-.127.13-.193.294-.15.544-.382.7-.69l2.94-5.805a1.017 1.017 0 1 0-1.813-.918l-2.55 5.037-8.776-17.322h19.13c.04 0 .08-.014.118-.017a.95.95 0 0 0 .21-.03c.034-.006.066-.004.1-.013l9.803-2.833-5.077 5.058a1.016 1.016 0 1 0 1.435 1.44l7.578-7.548a1.54 1.54 0 0 0 .175-1.964zm-2.228.353l-11.59 3.35L26.85 7.7h13.08l7.54 10.893zm-33.606 5.392l7.032 13.88-16.52-16.622 9.488 2.742zm19.717-1.87H16.42L25 8.582l8.58 13.533zM23.154 7.7L14.12 21.945 2.505 18.63 10.06 7.7h13.093z"/></svg>