<?xml version="1.0" encoding="UTF-8"?>
<svg width="64px" height="64px" viewBox="0 0 64 64" version="1.1" xmlns="http://www.w3.org/2000/svg" xmlns:xlink="http://www.w3.org/1999/xlink">
    <!-- Generator: Sketch 41.2 (35397) - http://www.bohemiancoding.com/sketch -->
    <title>icon/aws/flow/cloudfront</title>
    <desc>Created with Sketch.</desc>
    <defs>
        <polygon id="path-1" points="5.69544412e-14 0 0 64 18.75 64 18.75 39 31.5 38 44 39.25 44 64 64 64 64 0 44 0 44 24.25 31.5 25.5 18.5 24.25 18.5 0"></polygon>
    </defs>
    <g id="Icons" stroke="none" stroke-width="1" fill="none" fill-rule="evenodd">
        <g id="icon/aws/flow/cloudfront">
            <g id="outline">
                <polygon id="line" stroke-opacity="0.4" stroke="#000000" stroke-width="0.5" stroke-linecap="round" stroke-linejoin="round" points="18.5 6.5 18.5 24.25 31.5 25.5 44 24.25 44 6.25 31.5 0"></polygon>
                <polygon id="line" stroke-opacity="0.4" stroke="#000000" stroke-width="0.5" stroke-linecap="round" stroke-linejoin="round" points="44 57.5 31.5 63.75 18.75 57.25 18.75 39 31.5 38 44 39.25"></polygon>
                <g id="masked">
                    <mask id="mask-2" fill="white">
                        <use xlink:href="#path-1"></use>
                    </mask>
                    <g id="mask"></g>
                    <polygon id="line" stroke-opacity="0.4" stroke="#000000" stroke-width="0.5" stroke-linecap="round" stroke-linejoin="round" mask="url(#mask-2)" points="5 13 5 26.25 16.75 27 23.5 26.25 23.5 13.25 11.25 10"></polygon>
                    <polygon id="line" stroke-opacity="0.4" stroke="#000000" stroke-width="0.5" stroke-linecap="round" stroke-linejoin="round" mask="url(#mask-2)" points="57.75 13 57.75 26.5 46 27 39 26.5 39 13 51.25 10"></polygon>
                    <polygon id="line" stroke-opacity="0.4" stroke="#000000" stroke-width="0.5" stroke-linecap="round" stroke-linejoin="round" mask="url(#mask-2)" points="57.75 37.25 57.75 50.5 51.5 53.5 39 50.5 39 37 46 36.5"></polygon>
                    <polygon id="line" stroke-opacity="0.4" stroke="#000000" stroke-width="0.5" stroke-linecap="round" stroke-linejoin="round" mask="url(#mask-2)" points="5 37 5 50.25 11.25 53.5 23 50 23.5 37 16.5 36.5"></polygon>
                </g>
            </g>
        </g>
    </g>
</svg>