<?xml version="1.0" encoding="UTF-8"?>
<svg width="64px" height="64px" viewBox="0 0 64 64" version="1.1" xmlns="http://www.w3.org/2000/svg" xmlns:xlink="http://www.w3.org/1999/xlink">
    <!-- Generator: Sketch 41.2 (35397) - http://www.bohemiancoding.com/sketch -->
    <title>icon/frontend/style/less</title>
    <desc>Created with Sketch.</desc>
    <defs></defs>
    <g id="Icons" stroke="none" stroke-width="1" fill="none" fill-rule="evenodd" stroke-linecap="round" stroke-opacity="0.4" stroke-linejoin="round">
        <g id="icon/frontend/style/less" stroke="#000000" stroke-width="0.5">
            <g id="outlines" transform="translate(6.000000, 2.000000)">
                <path d="M35.3218589,52.5438898 C38.130809,52.5438898 38.9569707,51.5524957 38.9569707,47.7521515 C38.9569707,44.1170396 38.626506,40.8123924 38.626506,36.8468158 C38.626506,31.7246127 40.2788296,29.7418244 43.5834768,28.9156627 L43.5834768,28.5851979 C40.2788296,27.7590361 38.626506,25.7762478 38.626506,20.6540448 C38.626506,16.6884682 38.9569707,13.2185886 38.9569707,9.74870912 C38.9569707,6.11359725 38.2960413,5.1222031 35.3218589,5.1222031 L34,5.1222031 L34,0 L38.2960413,0 C44.2444062,0 46.8881239,2.31325301 46.8881239,9.58347676 C46.8881239,14.2099828 46.2271945,16.8537005 46.2271945,21.1497418 C46.2271945,23.4629948 47.7142857,25.9414802 52.010327,26.1067126 L52.010327,31.8898451 C47.7142857,32.0550775 46.2271945,34.5335628 46.2271945,36.8468158 C46.2271945,41.1428571 46.8881239,43.6213425 46.8881239,48.4130809 C46.8881239,55.6833046 44.2444062,57.9965577 38.2960413,57.9965577 L34,57.9965577 L34,52.7091222 L35.3218589,52.5438898 L35.3218589,52.5438898 Z" id="line"></path>
                <path d="M17.9420171,52.5438898 C14.9220736,52.5438898 14.0338549,51.5524957 14.0338549,47.7521515 C14.0338549,44.1170396 14.3891424,40.8123924 14.3891424,36.8468158 C14.3891424,31.7246127 12.6127051,29.7418244 9.05983041,28.9156627 L9.05983041,28.5851979 C12.6127051,27.7590361 14.3891424,25.7762478 14.3891424,20.6540448 C14.3891424,16.6884682 14.0338549,13.2185886 14.0338549,9.74870912 C14.0338549,6.11359725 14.7444299,5.1222031 17.9420171,5.1222031 L19.363167,5.1222031 L19.363167,0 L14.7444299,0 C8.34925548,0 5.50695574,2.31325301 5.50695574,9.58347676 C5.50695574,14.2099828 6.21753067,16.8537005 6.21753067,21.1497418 C6.21753067,23.4629948 4.61873707,25.9414802 0,26.1067126 L0,31.8898451 C4.61873707,32.0550775 6.21753067,34.5335628 6.21753067,36.8468158 C6.21753067,41.1428571 5.50695574,43.6213425 5.50695574,48.4130809 C5.50695574,55.6833046 8.34925548,57.9965577 14.7444299,57.9965577 L19.363167,57.9965577 L19.363167,52.7091222 L17.9420171,52.5438898 L17.9420171,52.5438898 Z" id="line"></path>
            </g>
        </g>
    </g>
</svg>