<?xml version="1.0" encoding="UTF-8"?>
<svg width="64px" height="64px" viewBox="0 0 64 64" version="1.1" xmlns="http://www.w3.org/2000/svg" xmlns:xlink="http://www.w3.org/1999/xlink">
    <!-- Generator: Sketch 41.2 (35397) - http://www.bohemiancoding.com/sketch -->
    <title>icon/aws/data/dynamodb</title>
    <desc>Created with Sketch.</desc>
    <defs>
        <polygon id="path-1" points="0 0 23.25 0 10.75 6.25 4 14 4 20.75 10.75 16.25 23.25 12 41.25 12 54 16 60.75 21 60.75 14 54 6.25 41.25 0 64 0 64 23.75 60.75 23.75 54 20 41.25 17 23.25 17 10.75 20 4 23.75 4 30.5 10.75 30 23.25 29.25 41.25 29.25 54 30 60.75 30.5 64 30.5 64 64 41.25 64 54 57.5 60.75 49.75 60.75 43 54 47.75 41.25 51.75 23.25 51.75 10.75 47.75 4 43 4 49.75 10.75 57.5 23.25 64 0 64 0 40 4 40 10.75 43.75 23.25 46.5 41.25 46.5 54 43.75 60.75 40 60.75 33.25 54 34 41.25 34.5 23.25 34.5 10.75 34 4 33.25 0 33.25"></polygon>
    </defs>
    <g id="Icons" stroke="none" stroke-width="1" fill="none" fill-rule="evenodd">
        <g id="icon/aws/data/dynamodb">
            <g id="outline">
                <g id="masked">
                    <mask id="mask-2" fill="white">
                        <use xlink:href="#path-1"></use>
                    </mask>
                    <g id="mask"></g>
                    <polyline id="line" stroke-opacity="0.4" stroke="#000000" stroke-width="0.5" stroke-linecap="round" stroke-linejoin="round" mask="url(#mask-2)" points="6 16 6 48 10.75 55 10.75 9 23.25 9 23.25 55 41.25 55 41.25 9 54 9 54 55 58.75 48 58.75 16"></polyline>
                </g>
                <polygon id="line" stroke-opacity="0.4" stroke="#000000" stroke-width="0.5" stroke-linecap="round" stroke-linejoin="round" points="4 43 4 49.75 10.75 57.5 23.25 64 41.25 64 54 57.5 60.75 49.75 60.75 43 54 47.75 41.25 51.75 23.25 51.75 10.75 47.75"></polygon>
                <polygon id="line" stroke-opacity="0.4" stroke="#000000" stroke-width="0.5" stroke-linecap="round" stroke-linejoin="round" points="4 33.25 4 40 10.75 43.75 23.25 46.5 41.25 46.5 54 43.75 60.75 40 60.75 33.25 54 34 41.25 34.5 23.25 34.5 10.75 34"></polygon>
                <polygon id="line" stroke-opacity="0.4" stroke="#000000" stroke-width="0.5" stroke-linecap="round" stroke-linejoin="round" points="4 23.75 4 30.5 10.75 30 23.25 29.25 41.25 29.25 54 30 60.75 30.5 60.75 23.75 54 20 41.25 17 23.25 17 10.75 20"></polygon>
                <polygon id="line" stroke-opacity="0.4" stroke="#000000" stroke-width="0.5" stroke-linecap="round" stroke-linejoin="round" points="4 14 10.75 6.25 23.25 0 41.25 0 54 6.25 60.75 14 60.75 21 54 16 41.25 12 23.25 12 10.75 16.25 4 20.75"></polygon>
            </g>
        </g>
    </g>
</svg>