<?xml version="1.0" encoding="UTF-8"?>
<svg width="64px" height="64px" viewBox="0 0 64 64" version="1.1" xmlns="http://www.w3.org/2000/svg" xmlns:xlink="http://www.w3.org/1999/xlink">
    <!-- Generator: Sketch 41.2 (35397) - http://www.bohemiancoding.com/sketch -->
    <title>icon/backend/ci/jasmine</title>
    <desc>Created with Sketch.</desc>
    <defs></defs>
    <g id="Icons" stroke="none" stroke-width="1" fill="none" fill-rule="evenodd" stroke-linecap="round" stroke-opacity="0.4" stroke-linejoin="round">
        <g id="icon/backend/ci/jasmine" stroke="#000000" stroke-width="0.5">
            <g id="outline" transform="translate(0.000000, -1.000000)">
                <polyline id="line" transform="translate(32.041591, 19.900960) scale(1, -1) translate(-32.041591, -19.900960) " points="29.5668182 12.468418 34.5154545 12.468418 35.745 14.1515817 35.745 27.3335028 28.3381817 27.3335028 28.3381817 14.1502258 29.5668182 12.468418"></polyline>
                <polyline id="line" transform="translate(19.842614, 28.316554) scale(1, -1) translate(-19.842614, -28.316554) " points="26.3771363 23.4202825 27.905909 28.0996045 26.6763183 29.7823162 14.0678182 33.8555367 11.7793182 26.8516947 24.3891818 22.7775705 26.3771363 23.4202825"></polyline>
                <polyline id="line" transform="translate(24.122545, 42.972328) scale(1, -1) translate(-24.122545, -42.972328) " points="31.015 47.8979321 27.011909 50.7905876 25.0221817 50.1474236 17.2300909 39.4825649 23.2219545 35.1540677 31.015 45.8192881 31.015 47.8979321"></polyline>
                <polyline id="line" transform="translate(39.960000, 42.972102) scale(1, -1) translate(-39.960000, -42.972102) " points="37.0713638 50.7905876 33.0672728 47.8983841 33.0681818 45.8183841 40.8604545 35.1536158 46.8527273 39.4821129 39.059091 50.1478756 37.0713638 50.7905876"></polyline>
                <polyline id="line" transform="translate(44.239318, 28.315876) scale(1, -1) translate(-44.239318, -28.315876) " points="36.1754545 28.0991528 37.705 23.4193785 39.6945455 22.7771187 52.3031818 26.850339 50.014091 33.8546328 37.405 29.7805085 36.1754545 28.0991528"></polyline>
                <path d="M32.0427272,57.7974577 C46.11,57.7974577 57.5177272,46.4582485 57.5177272,32.4672883 C57.5177272,18.4718079 46.11,7.12762713 32.0427272,7.12762713 C17.9706818,7.12762713 6.56445455,18.4718079 6.56445455,32.4672883 C6.56445455,46.4582485 17.9706818,57.7974577 32.0427272,57.7974577 L32.0427272,57.7974577 Z" id="line"></path>
                <path d="M32.0427272,64.0927344 C14.4273636,64.0927344 0.0958636362,49.8445989 0.0958636362,32.3313786 C0.0958636362,14.8117853 14.4273636,0.559672316 32.0427272,0.559672316 C49.6563637,0.559672316 63.9863637,14.8117853 63.9863637,32.3313786 C63.9863637,49.8445989 49.6563637,64.0927344 32.0427272,64.0927344 L32.0427272,64.0927344 L32.0427272,64.0927344 Z" id="line"></path>
            </g>
        </g>
    </g>
</svg>