<?xml version="1.0" encoding="UTF-8"?>
<svg width="64px" height="64px" viewBox="0 0 64 64" version="1.1" xmlns="http://www.w3.org/2000/svg" xmlns:xlink="http://www.w3.org/1999/xlink">
    <!-- Generator: Sketch 41.2 (35397) - http://www.bohemiancoding.com/sketch -->
    <title>icon/backend/ci/rspec</title>
    <desc>Created with Sketch.</desc>
    <defs></defs>
    <g id="Icons" stroke="none" stroke-width="1" fill="none" fill-rule="evenodd" stroke-linecap="round" stroke-opacity="0.4" stroke-linejoin="round">
        <g id="icon/backend/ci/rspec" stroke="#000000" stroke-width="0.5">
            <g id="outline">
                <path d="M32,0.330208331 C14.5091429,0.329933099 0.329933099,14.5091429 0.330208331,32 C0.331947008,37.3406709 1.68428907,42.5941653 4.26145835,47.2718752 L6.69417707,41.894552 L11.4104165,41.8822907 C9.91013547,38.780976 9.1275792,35.3815936 9.12083307,31.9364581 C9.12648107,19.7518203 18.656088,9.69711093 30.8229168,9.03854187 L35.1020832,5.06145835 L33.3125003,0.377083333 C32.8753712,0.352387392 32.4377771,0.336759035 32,0.330208331 Z" id="line"></path>
                <path d="M34.8864581,0.4875 L36.7593749,5.35937493 L32.8156251,9.03229173 C45.1766867,9.43794505 54.9914233,19.5687498 55.0052107,31.9364581 C55.0023792,34.2948518 54.6359209,36.6387084 53.918752,38.8854165 L56.220832,44.2760416 L61.2031253,44.1781248 C62.8214401,40.3214573 63.6597957,36.1824307 63.669792,32 C63.6568627,15.6373583 51.1810235,1.97859022 34.8864581,0.4875 L34.8864581,0.4875 Z" id="line"></path>
                <path d="M53.2416667,40.7427083 C49.6850139,49.2994379 41.330008,54.8764267 32.0635419,54.879168 C23.8185931,54.867664 16.2138853,50.4328075 12.1437499,43.2625003 L7.6514688,43.2799669 L5.16458336,48.745832 C10.938528,58.014352 21.0801285,63.6543893 32,63.669792 C44.2009291,63.6570987 55.3095147,56.636576 60.5572907,45.6218752 L55.379168,45.7343749 L53.2416667,40.7427083 Z" id="line"></path>
                <polygon id="line" points="40.7466757 18.2799995 49.106648 27.2019643 47.0746544 31.1829333 31.9992363 49.503104 16.9232864 31.1829333 14.8912933 27.0196875 23.2517989 18.2799995"></polygon>
            </g>
        </g>
    </g>
</svg>