<?xml version="1.0" encoding="UTF-8"?>
<svg width="64px" height="64px" viewBox="0 0 64 64" version="1.1" xmlns="http://www.w3.org/2000/svg" xmlns:xlink="http://www.w3.org/1999/xlink">
    <!-- Generator: Sketch 41.2 (35397) - http://www.bohemiancoding.com/sketch -->
    <title>icon/backend/ci/travis</title>
    <desc>Created with Sketch.</desc>
    <defs></defs>
    <g id="Icons" stroke="none" stroke-width="1" fill="none" fill-rule="evenodd" stroke-linecap="round" stroke-opacity="0.4" stroke-linejoin="round">
        <g id="icon/backend/ci/travis" stroke="#000000" stroke-width="0.5">
            <g id="outline" transform="translate(6.000000, 1.000000)">
                <path d="M42.5872,39.216 C41.6624,38.76928 40.64832,39.33664 38.80224,39.37088 C37.4288,39.4192 36.27552,39.43424 36.2,37.27712 C36.12416,35.11808 37.00416,33.3328 38.3776,33.28416 C39.75104,33.23616 41.00384,34.94816 41.1728,37.10208 C41.2192,37.69536 41.1536,38.12832 41.00608,38.44928 C42.2848,38.29664 42.57376,39.16448 42.5872,39.216 Z" id="line"></path>
                <path d="M20.71488,37.70496 C20.73504,39.864 19.592,39.73344 18.21696,39.74688 C18.07776,39.7504 17.9456,39.752 17.8144,39.75392 C17.66016,39.75744 17.51232,39.75904 17.3696,39.75552 C16.03584,39.75392 15.18304,39.69344 14.4288,40.1008 C14.44736,40.0544 14.7776,39.31328 15.976,39.0128 C15.84352,38.72032 15.76064,38.31488 15.73856,37.75296 C15.65632,35.59584 16.98656,33.82688 18.3616,33.81504 C19.73504,33.8016 20.69408,35.54656 20.71488,37.70496 Z" id="line"></path>
                <path d="M6.95968,16.8272 C6.15456,17.15168 5.35456,17.4864 4.57248,17.85408 C3.7888,18.21216 3.01856,18.59648 2.28288,19.02528 C1.60416,19.41632 0.95264,19.84544 0.3776,20.3296 C0.35296,20.4752 0.32992,20.63424 0.31008,20.78496 C0.28512,20.9984 0.26016,21.21248 0.24352,21.42784 C0.20544,21.85856 0.1904,22.2928 0.18592,22.72672 C0.1776,23.59488 0.23712,24.46304 0.34656,25.32256 C0.4656,26.184 0.62304,27.04064 0.85664,27.8672 C0.9728,28.2816 1.10208,28.69056 1.2544,29.08448 C1.32896,29.28384 1.41184,29.47744 1.49824,29.66624 C1.54112,29.76032 1.58592,29.85344 1.6304,29.94272 L1.68544,30.04704 C1.74976,30.08032 1.81632,30.11328 1.87904,30.14304 L2.26496,30.32672 C2.48032,30.42624 2.77696,30.56704 3.02208,30.67648 C3.0368,30.66464 3.05024,30.65152 3.06176,30.64 L2.34784,27.91648 C2.49856,27.8752 3.85728,27.52384 6.19808,27.0784 C6.00928,27.04352 5.81696,27.00224 5.63008,26.95712 C5.09824,26.82496 4.5712,26.6624 4.06272,26.45696 C3.81088,26.34944 3.56064,26.23328 3.32384,26.09888 C3.08672,25.96288 2.85312,25.80928 2.67264,25.60384 C5.24384,26.44352 10.55648,26.0624 15.28,25.57568 C19.60032,25.12992 23.92896,24.84192 28.28096,24.83168 C32.63296,24.8416 36.96512,25.1296 41.28256,25.57568 C46.00896,26.06272 51.32224,26.44384 53.89248,25.60384 C53.712,25.80928 53.47872,25.96288 53.2416,26.09888 C53.00512,26.23328 52.75456,26.34912 52.50272,26.45696 C51.99232,26.6624 51.4672,26.82464 50.93376,26.95712 C50.85568,26.97504 50.77632,26.9936 50.69664,27.01024 C53.26304,27.48576 54.75712,27.87328 54.91616,27.91648 L54.232,30.51072 C54.3696,30.44928 54.50848,30.39008 54.64416,30.32704 L55.0304,30.14336 C55.09312,30.11328 55.15968,30.08064 55.22432,30.04736 L55.27744,29.94304 C55.32352,29.85376 55.36832,29.76064 55.41152,29.66656 C55.49792,29.47744 55.58048,29.28384 55.65696,29.0848 C55.80768,28.69088 55.93824,28.2816 56.05248,27.86752 C56.2864,27.04096 56.44544,26.18432 56.56288,25.32288 C56.6736,24.46336 56.73184,23.59488 56.72352,22.72704 C56.72032,22.29312 56.70368,21.85888 56.6672,21.42816 C56.64896,21.2128 56.6256,20.99904 56.59904,20.78528 C56.5808,20.63456 56.55584,20.47552 56.53088,20.32992 C55.95584,19.84576 55.30496,19.41696 54.6256,19.0256 C53.88992,18.5968 53.12032,18.21248 52.33472,17.8544 C51.55456,17.48672 50.75296,17.152 49.94752,16.82752 C49.54464,16.66496 49.13856,16.50592 48.7312,16.3552 C48.32576,16.19808 47.91456,16.04928 47.504,15.89984 C48.36672,16.04224 49.22208,16.23904 50.06816,16.45632 C50.61984,16.59904 51.17024,16.75968 51.71328,16.93024 C47.83808,6.79968 38.57088,0.2032 28.45408,0.2032 C18.33504,0.2032 9.06976,6.79968 5.1952,16.93024 C5.73984,16.75968 6.28832,16.59904 6.8384,16.45632 C7.68672,16.23936 8.54144,16.04224 9.4048,15.89984 C8.992,16.04896 8.58304,16.19776 8.17536,16.3552 C7.7696,16.5056 7.36416,16.66464 6.95968,16.8272 Z" id="line"></path>
                <path d="M30.04032,53.88288 L30.5504,54.49056 C30.56192,54.50528 31.69504,55.85376 33.08032,57.2272 C34.0016,58.14016 35.11456,58.60224 36.39008,58.60224 C36.8256,58.60224 37.2832,58.54624 37.74528,58.43488 C38.17408,58.33056 38.64,58.21952 39.11712,58.10528 C40.84,57.69344 42.79136,57.2256 43.73728,56.96064 C43.92448,56.90752 44.13344,56.85984 44.35328,56.8096 C45.61248,56.51872 47.33856,56.11744 48.25312,54.28512 C48.9408,52.91008 49.86816,51.12544 50.55616,49.8176 C49.96,50.09248 49.33504,50.3904 48.8912,50.624 C48.20704,50.98336 47.31104,51.15744 46.15264,51.15744 C45.464,51.15744 44.78752,51.09952 44.03904,51.03296 C42.54304,50.89536 40.01152,50.59744 39.9856,50.59392 L39.79168,50.57248 L39.63872,50.44992 C39.616,50.43328 37.39776,48.66592 35.6048,47.256 C35.53216,47.19648 35.46592,47.14144 35.40608,47.09184 C35.21728,46.93088 35.21728,46.93088 35.10464,46.93088 C34.5296,46.93088 32.85824,47.44928 29.1968,48.58432 L28.97184,48.65568 L28.75136,48.57248 C28.7264,48.56416 26.32416,47.67328 23.44544,47.67328 C23.20992,47.67328 22.97504,47.67936 22.74624,47.6912 C22.45792,47.70592 20.83968,48.47456 18.77024,51.7488 L18.63616,51.95904 L18.39904,52.0352 C18.3648,52.04704 14.80288,53.1968 11.0256,54.2768 L10.78048,54.34656 L10.54848,54.23872 C10.52384,54.2288 9.04576,53.54304 7.63936,52.89664 C8.4064,54.02976 9.3872,55.4432 10.25024,56.55168 C11.75776,58.49312 13.65792,60.28736 17.30112,60.28736 C17.75808,60.28736 18.24352,60.2592 18.74208,60.20256 C22.448,59.78368 23.40224,59.61472 23.91584,59.52512 C24.0896,59.49568 24.2272,59.4704 24.40288,59.44896 C24.43104,59.44544 27.4656,59.05312 28.31712,57.14304 C29.1952,55.18016 29.37248,54.71264 29.3792,54.69472 L29.68896,53.86816 C29.68896,53.86816 29.72736,53.65408 29.7904,53.58752 C29.7904,53.58912 29.7904,53.58912 29.792,53.58912 L29.79808,53.59424 C29.89568,53.66432 30.04032,53.88288 30.04032,53.88288 Z" id="line"></path>
            </g>
        </g>
    </g>
</svg>