<?xml version="1.0" encoding="UTF-8"?>
<svg width="64px" height="64px" viewBox="0 0 64 64" version="1.1" xmlns="http://www.w3.org/2000/svg" xmlns:xlink="http://www.w3.org/1999/xlink">
    <!-- Generator: Sketch 41.2 (35397) - http://www.bohemiancoding.com/sketch -->
    <title>icon/frontend/logic/browserify</title>
    <desc>Created with Sketch.</desc>
    <defs></defs>
    <g id="Icons" stroke="none" stroke-width="1" fill="none" fill-rule="evenodd" stroke-linecap="round" stroke-opacity="0.4" stroke-linejoin="round">
        <g id="icon/frontend/logic/browserify" stroke="#000000" stroke-width="0.5">
            <g id="outline" transform="translate(0.000000, 5.000000)">
                <path d="M27.6455557,0.00217246231 C26.5387482,0.0226958794 25.1537157,0.7130002 24.1631437,0.474534272 C23.7677523,0.379357587 23.2844832,0.338325225 22.8113849,0.363981507 C22.8030392,0.36446392 22.794605,0.363499095 22.7862593,0.363981507 C22.3052076,0.392561205 21.8357612,0.493972262 21.4897769,0.70569005 C21.4754814,0.71443779 21.4590842,0.722532662 21.4445507,0.730815677 C21.4307698,0.75092583 21.4162685,0.76914814 21.3993246,0.78609206 C20.9395859,1.24582914 19.9226726,1.28786975 19.4495759,1.76096643 C19.0631493,2.14739296 18.7050886,2.88728765 18.2787216,3.54991115 C18.2746693,3.55621467 18.2727397,3.56372422 18.2686713,3.57001165 C16.7516527,5.33868542 15.5410894,7.51494915 15.1128924,9.29362975 C14.7610629,10.7550922 14.7659128,12.7289809 14.1882693,14.183077 C14.0267176,14.5897439 13.3569286,16.840841 13.8767115,17.2785544 C14.2307505,17.5766947 15.7399333,17.8049817 16.1832442,17.2785544 C16.4218211,16.9952209 18.609518,16.2871011 19.293797,15.4745343 C20.0995698,14.5176683 20.5153302,12.8649294 21.0676663,11.4745343 C21.1555602,11.2532872 21.2687308,11.0185134 21.3993246,10.786092 C21.7126834,11.3930468 21.9614263,11.8886062 22.0927919,12.1931272 C22.3662392,12.8269942 22.6671164,13.7035465 22.9169126,14.6403634 C22.3755771,15.4696426 22.6011353,16.6042806 22.9922894,17.1227755 C21.4094167,17.6155851 22.1634524,19.3184418 22.1028422,19.3790569 C21.9985994,19.4833302 21.6683771,19.6225801 21.535003,19.7559413 C21.3698814,19.9210645 21.3440482,20.2654311 21.3440482,20.5147353 C21.3440482,20.7552804 21.3744386,20.9690307 21.4194251,21.1579513 C19.9792225,24.7809672 18.6198255,29.3159252 16.9018372,31.7609665 C16.4073584,31.9865052 15.9014898,32.180131 15.3088723,32.2986547 C14.154121,32.5874202 11.2352386,33.1595915 8.77620872,33.987097 C8.66947987,34.1289455 8.54511565,34.2684415 8.40434942,34.4092077 C8.16069435,34.652861 7.67313012,34.6529897 7.42947505,34.8966447 C7.2399659,35.086154 6.64913495,34.8729632 6.4596258,35.062474 C5.89728932,35.6248087 5.06729615,35.9169287 4.1832439,36.3589565 C4.08516792,36.4079935 3.77089575,36.2838672 3.69580672,36.3589565 C3.2942051,36.760558 2.57512812,36.9921977 2.23349515,37.3338307 C1.5651036,38.0022222 1.00477234,38.7283827 0.283746412,39.4494087 C-0.432820423,40.1659755 1.02851827,42.138904 1.25862078,42.3690067 C1.93573274,43.0461185 3.17949877,43.1542077 3.85661072,43.8313182 C4.14147345,44.116181 5.0965448,43.7352282 5.4395253,43.9619715 C5.5281042,43.9744337 5.60731465,43.9905897 5.66063082,44.0172477 C6.6582622,44.5160635 8.61520852,44.8848547 9.79630922,45.2785542 C11.4240289,45.8211265 12.7151791,47.2708342 14.3942995,47.6906147 C15.6725676,48.010182 17.1242854,48.1801727 18.4144,48.6102127 C18.9537737,48.7900027 19.6087992,48.6666372 20.132993,48.8413685 C21.1133411,49.1681512 21.9985061,49.5737585 22.8917869,49.8715192 C23.2011787,49.9746492 23.6099891,49.792275 23.9269628,49.8715192 C24.6401881,50.0498252 25.4112015,50.1016087 26.1078672,50.3338307 C27.3483545,50.747327 29.0030585,49.9203345 30.2435457,50.3338307 C31.061067,50.6063372 36.1508165,50.1702785 36.5601287,49.7609665 C36.8610395,49.4600555 38.005419,49.8423397 38.3993245,49.6453885 C38.7412085,49.4744457 39.7794445,49.6421565 40.0073647,49.4142327 C40.59602,48.825576 41.8043995,48.7996365 42.6455557,48.379057 C42.9993905,48.2021402 43.5447347,48.4470545 43.9118875,48.263479 C44.1230712,48.157887 44.5521045,48.287807 45.017415,48.4896097 C45.902892,48.4710015 46.5843762,48.379057 47.4696765,48.379057 C48.5222045,48.379057 49.9752007,47.8793165 51.5149025,47.1227755 C53.218901,46.738938 55.3017327,46.2957442 55.3993245,46.1981522 C56.1396567,45.4578202 58.107462,45.6709195 58.8415357,44.9368457 C59.361576,44.416804 60.0297922,44.2058742 60.5651537,43.6705142 C61.0420952,43.193571 61.697346,42.6474597 62.3842492,42.0725242 C62.5038875,41.7390907 62.8100775,41.4255902 63.092792,41.142876 C63.2113382,41.0243297 64.0480015,38.5759082 63.896812,38.2735292 C63.6199445,37.7197942 63.1624765,37.2618227 62.6355055,36.8363432 C62.4720145,36.780345 62.3466435,36.7233607 62.2887717,36.665489 C61.7258597,36.102577 60.3770887,36.0151122 59.8767115,35.5147352 C59.070987,34.7090107 57.8595955,33.9848957 56.4144,33.49966 C56.111701,33.3496297 55.828382,33.1900237 55.6254552,32.987097 C55.368053,32.7296965 53.88041,32.4010067 53.4445507,32.183077 C53.2101097,32.065854 52.699901,32.2474725 52.5249527,32.0725242 C52.100615,31.6481865 50.3221565,31.345846 49.0375155,30.9368457 C48.8501982,30.9487292 48.549625,30.805739 48.494802,30.7509162 C48.4561527,30.7122652 47.4603192,30.5656795 47.132993,30.2383532 C47.0958312,30.2011932 46.9621387,28.8669315 46.9621387,28.700665 C46.9621387,28.6393632 46.8133677,28.3921495 46.9018372,28.30368 C46.915602,28.2899152 46.9290517,28.2737222 46.9420382,28.2584537 C46.347454,24.5945134 45.892829,20.5486633 45.4646512,20.1881021 C44.828816,19.6526488 44.4755682,16.69664 43.776209,16.1077001 C43.0449962,15.4919654 42.5873657,14.8186516 42.0224402,14.2936297 C42.0221185,14.2920217 42.0227617,14.2902046 42.0224402,14.2886127 C41.809899,13.1204985 41.4063212,11.8081206 41.2787215,11.700673 C41.0714855,11.5261443 41.385457,10.7344997 41.178219,10.5599694 C40.5331522,10.0167735 39.6928127,6.82324905 39.0877667,6.3137383 C38.2953455,5.6464177 37.9055325,4.61069185 37.1530935,3.97705487 C35.29385,2.41139136 32.2054287,0.0815678392 28.7912845,0.25846191 C28.6445185,0.217085427 28.5016087,0.167340703 28.3641487,0.112733266 C28.1470922,0.0265021105 27.900977,-0.00255678393 27.6455557,0.00218050251 L27.6455557,0.00217246231 Z" id="line"></path>
                <path d="M47.173194,30.3891072 C47.0433528,30.8357082 46.2293853,32.2675907 45.8867618,32.6102127 C45.4460833,33.0508912 45.0670875,33.510289 44.6807318,33.8966447 C44.4069483,34.1704282 43.6254875,34.871487 43.3942995,35.102675 C42.8916133,35.6053612 42.5970928,35.4174712 42.0274653,35.987097 C41.7451175,36.2694447 41.1767703,36.2749797 40.9018373,36.5499112 C40.6531585,36.7985912 38.6581098,36.9481567 38.1681688,37.1931272 C38.0496,37.2524125 37.6954918,37.1029902 37.6053548,37.1931272 C37.2533678,37.5451142 34.4719325,37.6732832 34.3892743,37.7559412 C33.9634188,38.1817985 32.829715,37.6915007 32.21842,37.9971472 C31.6763225,38.268197 30.6001883,38.0775492 29.9671638,38.0775492 C29.616603,38.0775492 28.6851683,38.070892 27.7259578,38.0473985 C27.4995185,38.0153472 27.3211465,37.9898982 27.3138975,37.9971472 C27.3090413,38.0020035 27.287323,38.0242395 27.2736965,38.0373482 C27.0935333,38.0318005 26.9200355,38.024259 26.7460583,38.0172477 C26.6377488,37.9760112 26.5228108,37.9504805 26.4294755,37.9971472 C26.4251498,37.999302 26.4189748,38.000074 26.414408,38.0021645 C25.665941,37.9659867 25.0551093,37.912968 24.9018452,37.8363352 C24.2726866,37.521756 23.5969946,37.4343252 22.811393,37.4343252 C21.581797,37.4343252 18.8591775,35.9808305 17.9068704,35.504677 C17.7610211,35.4317522 17.3565427,35.0077072 17.1380261,34.8916117 C17.1363055,34.807463 17.1333146,34.7311165 17.1028503,34.700657 C16.878794,34.4766005 16.7806939,33.975942 16.6204382,33.6554307 C16.5537576,33.5220695 16.6204382,33.0332317 16.6204382,33.0926167 C16.6204382,33.0952377 16.7820462,32.4494005 16.7812422,32.4494005 C16.6434766,32.4494005 15.9229138,33.388131 15.6556141,33.6554307 C15.6531216,33.6579232 15.6606472,33.672447 15.6656643,33.6855815 C15.5150215,33.8932085 15.4093829,34.2030537 15.4093829,34.6705062 C15.4093829,36.26409 16.2883522,36.3484702 17.1129005,37.1730187 C17.315348,37.3754662 17.7487598,37.2410387 17.9068704,37.3991492 C18.0683015,37.5605805 18.3052382,37.7039662 18.5852623,37.8313102 C18.2350199,38.0366537 17.5602187,38.0875095 17.3390312,38.308697 C17.1227031,38.5250252 16.1197041,39.1470037 15.7460663,39.3338227 C15.6758191,39.3689472 15.3359518,39.4072537 15.293805,39.4494005 C13.1698058,41.5733997 10.7727534,42.9453267 8.81139265,44.906687 C8.64626943,45.0718102 8.585262,47.2284045 8.585262,47.6353302 C8.585262,48.3457607 8.34397878,49.0975662 8.81139265,49.5649785 C9.008585,49.7621725 9.66241898,49.622035 9.83651828,49.7961342 C9.87426058,49.8338782 10.349705,50.1874702 10.4043575,50.1328177 C10.6118497,49.9253257 10.2887796,48.840505 10.2887796,48.544878 C10.2887796,46.99223 10.4563473,45.4225367 11.4294834,44.4494005 C13.3059924,42.5728917 15.9815092,41.7164702 17.6807397,40.0172397 C18.1802276,39.5177502 19.095434,39.2517595 19.7611417,38.705682 C19.7378026,38.8658187 19.7650171,39.016685 19.8817447,39.142868 C19.9593423,39.226753 20.2358384,39.0606665 20.334006,39.1127172 C21.0016836,39.4667482 23.0364623,40.2257737 23.6355136,39.4946267 C23.744148,39.701181 23.8302472,39.9104675 23.9370211,40.0172397 C24.3358826,40.4161012 24.0239727,42.3408225 23.8214432,42.745883 C23.0572784,44.274211 22.6542826,48.686913 22.0023478,49.3388477 C21.8897898,49.4514075 22.1373942,50.523512 22.2284784,50.705682 C22.4653717,51.179467 22.0551108,52.2358302 22.2284784,52.4091995 C22.3990368,52.579758 22.2890758,53.032611 22.4596342,53.2031695 C22.6149065,53.3584435 23.3244623,53.163475 23.4797347,53.3187472 C23.5412872,53.3803 24.350191,53.930703 24.5048603,53.7760337 C24.6330243,53.6478697 24.1540149,52.1698187 24.0475739,51.9569382 C23.9558834,51.7735557 24.2944933,48.408513 24.3892824,48.3137222 C24.5219393,48.181067 24.2566255,47.6524077 24.3892824,47.5197522 C24.6475932,47.2614415 24.9571216,41.9090042 24.9571216,41.1529182 C24.9571216,41.0253025 25.2833368,40.2278755 25.0726995,40.0172397 C25.0715738,40.0161142 24.8842999,39.585994 24.6304885,39.1679935 C25.0053308,39.1958302 25.3215953,39.2410097 25.414408,39.3338227 C25.5812905,39.5007035 28.9454795,39.3338227 29.5048603,39.3338227 C31.7262795,39.3338227 35.2209335,39.1617157 36.5551115,38.8765362 C37.0869595,38.7628542 38.3482663,38.663376 39.057624,38.308697 C39.469403,38.1028067 40.9197588,37.9619537 41.173202,37.8966367 C41.71479,37.757059 43.455196,37.338261 43.9420463,36.8514107 C44.3031235,36.4903317 45.5377528,35.239487 45.9922975,35.0122147 C46.5047463,34.7559912 46.7620888,33.8457985 47.0626493,33.424275 C47.1012263,33.1121995 47.9410975,32.296751 47.776217,31.9669885 C47.589112,31.205559 47.472164,30.41838 47.173202,30.389099 L47.173194,30.3891072 Z" id="line"></path>
            </g>
        </g>
    </g>
</svg>