<?xml version="1.0" encoding="UTF-8"?>
<svg width="64px" height="64px" viewBox="0 0 64 64" version="1.1" xmlns="http://www.w3.org/2000/svg" xmlns:xlink="http://www.w3.org/1999/xlink">
    <!-- Generator: Sketch 41.2 (35397) - http://www.bohemiancoding.com/sketch -->
    <title>icon/frontend/style/sass</title>
    <desc>Created with Sketch.</desc>
    <defs></defs>
    <g id="Icons" stroke="none" stroke-width="1" fill="none" fill-rule="evenodd" stroke-linecap="round" stroke-opacity="0.4" stroke-linejoin="round">
        <g id="icon/frontend/style/sass" stroke="#000000" stroke-width="0.5">
            <g id="outline" transform="translate(0.000000, 8.000000)">
                <path d="M55.0923977,27.5212476 C52.8592593,27.5337232 50.9255361,28.0701754 49.3037037,28.868616 C48.7048733,27.6834308 48.1060429,26.6479532 48.0062378,25.8744639 C47.8939571,24.9762183 47.7567251,24.4272904 47.8939571,23.354386 C48.0311891,22.2814815 48.6549708,20.7594542 48.6549708,20.6346979 C48.6424951,20.5224172 48.5177388,19.9734893 47.2327485,19.9610136 C45.9477583,19.948538 44.8374269,20.2105263 44.7126706,20.5473684 C44.5879142,20.8842105 44.3384016,21.6576998 44.1762183,22.4561404 C43.9516569,23.6288499 41.6062378,27.7832359 40.271345,29.9664717 C39.8346979,29.1181287 39.4604288,28.3695906 39.385575,27.7707602 C39.2732943,26.8725146 39.1360624,26.3235867 39.2732943,25.2506823 C39.4105263,24.1777778 40.034308,22.6557505 40.034308,22.5309942 C40.0218324,22.4187135 39.897076,21.8697856 38.6120858,21.8573099 C37.3270955,21.8448343 36.2167641,22.1068226 36.0920078,22.4436647 C35.9672515,22.7805068 35.8300195,23.5789474 35.5555556,24.3524366 C35.2935673,25.1259259 32.1746589,32.0623782 31.3637427,33.871345 C30.9520468,34.7945419 30.5902534,35.5306043 30.3282651,36.0296296 C30.0662768,36.528655 30.3157895,36.0670565 30.2908382,36.1169591 C30.0662768,36.5411306 29.9415205,36.7781676 29.9415205,36.7781676 L29.9415205,36.7906433 C29.7668616,37.1025341 29.5797271,37.4019493 29.4923977,37.4019493 C29.4300195,37.4019493 29.3052632,36.5660819 29.5173489,35.4183236 C29.9789474,33.0105263 31.1017544,29.2553606 31.0892788,29.1181287 C31.0892788,29.0557505 31.3013645,28.3945419 30.365692,28.0576998 C29.4549708,27.7208577 29.1306043,28.2822612 29.0557505,28.2822612 C28.9808967,28.2822612 28.9185185,28.4818713 28.9185185,28.4818713 C28.9185185,28.4818713 29.9290448,24.2526316 26.9847953,24.2526316 C25.1384016,24.2526316 22.5933723,26.2612086 21.3333333,28.0951267 C20.5348928,28.5317739 18.8382066,29.4549708 17.0417154,30.4405458 C16.3555556,30.8148148 15.6444444,31.2140351 14.9707602,31.5758285 L14.8335283,31.4261209 C11.2654971,27.6210526 4.66588694,24.9263158 4.94035088,19.811306 C5.04015595,17.9524366 5.68888889,13.0495127 17.6155945,7.11111111 C27.3840156,2.24561404 35.2062378,3.58050682 36.5660819,6.5497076 C38.4998051,10.791423 32.3867446,18.6760234 22.2315789,19.811306 C18.3641326,20.2479532 16.3306043,18.7508772 15.8191033,18.1894737 C15.2826511,17.6031189 15.2077973,17.5781676 15.0081871,17.6904483 C14.6838207,17.8651072 14.8834308,18.3890838 15.0081871,18.7009747 C15.3076023,19.4869396 16.5551657,20.8842105 18.6760234,21.582846 C20.5348928,22.194152 25.0760234,22.5309942 30.5653021,20.4101365 C36.7157895,18.0272904 41.5189084,11.4152047 40.1091618,5.88849903 C38.6744639,0.261988304 29.3426901,-1.58440546 20.5224172,1.54697856 C15.2701754,3.41832359 9.58128655,6.33762183 5.48927875,10.1676413 C0.623781676,14.7087719 -0.149707602,18.6760234 0.174658869,20.322807 C1.30994152,26.1988304 9.40662768,30.0288499 12.6502924,32.8608187 C12.4881092,32.9481481 12.3384016,33.0354776 12.2011696,33.1103314 C10.5793372,33.9087719 4.40389864,37.139961 2.85692008,40.5582846 C1.11033138,44.425731 3.13138402,47.2077973 4.47875244,47.5820663 C8.64561404,48.7423002 12.9122807,46.6588694 15.2202729,43.2280702 C17.5157895,39.797271 17.2413255,35.3434698 16.1808967,33.3099415 L16.1434698,33.2350877 L17.4159844,32.4865497 C18.2393762,32 19.0502924,31.5508772 19.7614035,31.1641326 C19.3621832,32.2495127 19.0752437,33.5345029 18.9255361,35.405848 C18.7508772,37.6015595 19.6491228,40.4460039 20.834308,41.5688109 C21.3582846,42.0553606 21.9820663,42.0678363 22.3688109,42.0678363 C23.7411306,42.0678363 24.3649123,40.9325536 25.0510721,39.5727096 C25.8994152,37.9134503 26.6479532,35.9922027 26.6479532,35.9922027 C26.6479532,35.9922027 25.7122807,41.1945419 28.2697856,41.1945419 C29.2054581,41.1945419 30.1411306,39.9844055 30.5653021,39.3606238 L30.5653021,39.3730994 C30.5653021,39.3730994 30.5902534,39.3356725 30.6401559,39.2483431 C30.739961,39.0986355 30.7898635,39.011306 30.7898635,39.011306 L30.7898635,38.9863548 C31.1641326,38.3376218 32,36.8530214 33.2475634,34.3953216 C34.8569201,31.2265107 36.4038986,27.2592593 36.4038986,27.2592593 C36.4038986,27.2592593 36.5536062,28.2323587 37.0152047,29.8292398 C37.2896686,30.7773879 37.888499,31.8128655 38.3500975,32.8233918 C37.9758285,33.3473684 37.7512671,33.6467836 37.7512671,33.6467836 L37.7637427,33.6592593 C37.4643275,34.0584795 37.1274854,34.4826511 36.7781676,34.9068226 C35.505653,36.4288499 33.9836257,38.162963 33.7840156,38.6619883 C33.5469786,39.2483431 33.5968811,39.6849903 34.0584795,40.034308 C34.3953216,40.2838207 34.994152,40.3337232 35.6304094,40.2838207 C36.7781676,40.2089669 37.5766082,39.9220273 37.9758285,39.7473684 C38.5996101,39.522807 39.3107212,39.1859649 39.9968811,38.6869396 C41.2444444,37.7637427 42.0054581,36.4538012 41.9306043,34.7072125 C41.8931774,33.7465887 41.5812865,32.7984405 41.1945419,31.9001949 C41.3068226,31.7380117 41.4191033,31.5758285 41.531384,31.4011696 C43.5025341,28.5192982 45.0245614,25.3504873 45.0245614,25.3504873 C45.0245614,25.3504873 45.174269,26.3235867 45.6358674,27.9204678 C45.8729045,28.731384 46.3469786,29.617154 46.7711501,30.4904483 C44.9247563,32 43.7645224,33.7465887 43.3653021,34.894347 C42.6292398,37.0152047 43.2031189,37.9758285 44.288499,38.2003899 C44.7750487,38.3001949 45.4736842,38.0756335 45.9976608,37.8510721 C46.6463938,37.6389864 47.4323587,37.277193 48.1559454,36.7407407 C49.4035088,35.8175439 50.6011696,34.5325536 50.5387914,32.7984405 C50.5013645,32 50.2892788,31.2140351 50.0023392,30.4654971 C51.574269,29.8167641 53.6077973,29.4424951 56.1902534,29.754386 C61.7419103,30.4031189 62.8397661,33.871345 62.6276803,35.3185185 C62.4155945,36.765692 61.2553606,37.5641326 60.868616,37.8136452 C60.4818713,38.0506823 60.357115,38.1380117 60.3945419,38.3126706 C60.4444444,38.5746589 60.6191033,38.5621832 60.9559454,38.5122807 C61.4175439,38.4374269 63.8752437,37.3270955 63.9750487,34.6573099 C64.1247563,31.2265107 60.868616,27.4838207 55.0923977,27.5212476 L55.0923977,27.5212476 Z" id="line"></path>
            </g>
        </g>
    </g>
</svg>