<?xml version="1.0" encoding="UTF-8"?>
<svg width="64px" height="64px" viewBox="0 0 64 64" version="1.1" xmlns="http://www.w3.org/2000/svg" xmlns:xlink="http://www.w3.org/1999/xlink">
    <!-- Generator: Sketch 41.2 (35397) - http://www.bohemiancoding.com/sketch -->
    <title>icon/frontend/style/stylus</title>
    <desc>Created with Sketch.</desc>
    <defs></defs>
    <g id="Icons" stroke="none" stroke-width="1" fill="none" fill-rule="evenodd" stroke-linecap="round" stroke-opacity="0.4" stroke-linejoin="round">
        <g id="icon/frontend/style/stylus" stroke="#000000" stroke-width="0.5">
            <g id="outline" transform="translate(5.000000, 2.000000)">
                <path d="M46.5746415,0.131924528 C47.069434,0.131924528 47.4730566,0.256 47.7873208,0.503245283 C48.1000755,0.750490566 48.3144151,1.08075472 48.4303396,1.49313208 C48.5456604,1.90550943 48.5616604,2.37584906 48.4798491,2.90354717 C48.3971321,3.43184906 48.2078491,3.95954717 47.9107925,4.4869434 C47.8443774,4.5530566 47.7622642,4.5530566 47.6632453,4.4869434 C47.5645283,4.42083019 47.4981132,4.33871698 47.4655094,4.23969811 C47.5313208,3.84362264 47.3915472,3.51396226 47.0446792,3.24981132 C46.6984151,2.98626415 46.1616604,2.85373585 45.4365283,2.85373585 C44.0834717,2.85373585 42.7228679,3.35698113 41.3541132,4.36316981 C39.9847547,5.36996226 38.6567547,6.69826415 37.3704151,8.34686792 C36.0837736,9.99698113 34.8792453,11.8940377 33.7580377,14.0380377 C32.6359245,16.1826415 31.6626415,18.3930566 30.8381887,20.6689811 C30.013434,22.9452075 29.3613585,25.2051321 28.8834717,27.4484528 C28.405283,29.6923774 28.1664906,31.7373585 28.1664906,33.5852075 C28.1664906,34.5741887 28.4463396,35.0695849 29.0078491,35.0695849 C29.4036226,35.0695849 29.7909434,34.9044528 30.1704151,34.5741887 C30.549283,34.2448302 30.9873208,33.7503396 31.4821132,33.0898113 C31.5808302,33.0246038 31.6713962,33.0327547 31.7538113,33.1148679 C31.8359245,33.1978868 31.8606792,33.3047547 31.8283774,33.4360755 C31.1678491,34.4259623 30.3932075,35.250717 29.5023396,35.9103396 C28.6117736,36.5708679 27.802717,36.9002264 27.0775849,36.9002264 C26.450566,36.9002264 26.0137358,36.7187925 25.7664906,36.3556226 C25.5192453,35.9930566 25.3951698,35.5317736 25.3951698,34.9702642 C25.3951698,33.4197736 25.7245283,31.4810566 26.3850566,29.1559245 C27.0446792,26.8298868 27.9264906,24.3725283 29.0326038,21.7823396 C30.1378113,19.1927547 31.416,16.6113208 32.8677736,14.0380377 C34.3192453,11.4647547 35.8286792,9.1474717 37.3960755,7.08558491 C38.962566,5.02369811 40.5384151,3.34913208 42.1218113,2.06218868 C43.7043019,0.775245283 45.1886792,0.131924528 46.5746415,0.131924528 Z" id="line"></path>
                <path d="M2.63743396,60.9400755 C2.14233962,60.9400755 1.73871698,60.8163019 1.42475472,60.5690566 C1.11169811,60.3218113 0.897358491,59.9915472 0.781433962,59.5791698 C0.666415094,59.1661887 0.650113208,58.6964528 0.731924528,58.1687547 C0.814943396,57.6404528 1.00422642,57.1130566 1.30098113,56.5853585 C1.36739623,56.5186415 1.44950943,56.5186415 1.5485283,56.5853585 C1.64724528,56.6508679 1.71366038,56.7335849 1.74626415,56.8326038 C1.68075472,57.2286792 1.8205283,57.5583396 2.16709434,57.8224906 C2.51335849,58.0857358 3.04981132,58.2179623 3.77524528,58.2179623 C5.12830189,58.2179623 6.48920755,57.714717 7.85796226,56.7085283 C9.22701887,55.7026415 10.5550189,54.3746415 11.8416604,52.7257358 C13.1283019,51.0756226 14.3328302,49.1788679 15.4540377,47.034566 C16.5758491,44.8899623 17.549434,42.6795472 18.3735849,40.4033208 C19.1983396,38.1270943 19.8504151,35.8671698 20.3286038,33.6238491 C20.8067925,31.3799245 21.0455849,29.3349434 21.0455849,27.4873962 C21.0455849,26.4975094 20.7657358,26.0030189 20.2042264,26.0030189 C19.8081509,26.0030189 19.4208302,26.1672453 19.0416604,26.4975094 C18.6627925,26.8268679 18.2247547,27.3222642 17.7299623,27.9824906 C17.6312453,28.0476981 17.5406792,28.0395472 17.4582642,27.957434 C17.3761509,27.8744151 17.3513962,27.7672453 17.3836981,27.6353208 C18.0442264,26.6463396 18.8188679,25.8206792 19.7097358,25.1610566 C20.6003019,24.501434 21.4090566,24.1720755 22.1344906,24.1720755 C22.7615094,24.1720755 23.1983396,24.3526038 23.4455849,24.7157736 C23.6928302,25.0789434 23.8169057,25.5405283 23.8169057,26.1020377 C23.8169057,27.6525283 23.4875472,29.5903396 22.8270189,31.9163774 C22.1673962,34.2424151 21.2855849,36.6997736 20.1794717,39.2899623 C19.0742642,41.8795472 17.7960755,44.4609811 16.3443019,47.0342642 C14.8928302,49.6075472 13.3833962,51.9248302 11.8163019,53.986717 C10.2498113,56.0486038 8.67396226,57.7231698 7.09026415,59.0095094 C5.5074717,60.2964528 4.02309434,60.9400755 2.63743396,60.9400755 Z" id="line"></path>
            </g>
        </g>
    </g>
</svg>