<?xml version="1.0" encoding="UTF-8"?>
<svg width="64px" height="64px" viewBox="0 0 64 64" version="1.1" xmlns="http://www.w3.org/2000/svg" xmlns:xlink="http://www.w3.org/1999/xlink">
    <!-- Generator: Sketch 41.2 (35397) - http://www.bohemiancoding.com/sketch -->
    <title>icon/aws/data/rds</title>
    <desc>Created with Sketch.</desc>
    <defs>
        <polygon id="path-1" points="55.25 48.5 55.25 13.5 49 6 36.5 0 19 0 6.5 6 0 13.5 0 48.5 6.5 56 19 62 36.5 62 49 56"></polygon>
    </defs>
    <g id="Icons" stroke="none" stroke-width="1" fill="none" fill-rule="evenodd">
        <g id="icon/aws/data/rds">
            <g id="outline" transform="translate(4.000000, 1.000000)">
                <polygon id="line" stroke-opacity="0.4" stroke="#000000" stroke-width="0.5" stroke-linecap="round" stroke-linejoin="round" points="55.25 48.5 55.25 13.5 49 6 36.5 0 19 0 6.5 6 0 13.5 0 48.5 6.5 56 19 62 36.5 62 49 56"></polygon>
                <g id="masked">
                    <mask id="mask-2" fill="white">
                        <use xlink:href="#path-1"></use>
                    </mask>
                    <g id="mask"></g>
                    <polyline id="line" stroke-opacity="0.4" stroke="#000000" stroke-width="0.5" stroke-linecap="round" stroke-linejoin="round" mask="url(#mask-2)" points="6.5 -1 6.5 63 19 63 19 -1 36.5 -1 36.5 63 49 63 49 -1"></polyline>
                </g>
            </g>
        </g>
    </g>
</svg>