<?xml version="1.0" encoding="utf-8"?>
<!-- Generator: Adobe Illustrator 19.1.1, SVG Export Plug-In . SVG Version: 6.00 Build 0)  -->
<svg version="1.1" id="Layer_1" xmlns="http://www.w3.org/2000/svg" xmlns:xlink="http://www.w3.org/1999/xlink" x="0px" y="0px"
	 viewBox="-16 -33 100 100" style="enable-background:new -16 -33 100 100;" xml:space="preserve">
<style type="text/css">
	.st0{fill:#F58435;}
	.st1{fill:#9D5025;}
	.st2{fill:#6B3B19;}
	.st3{fill:#FBBF92;}
</style>
<polygon class="st0" points="46.4,17 34,17 34,67 46.4,60.8 "/>
<polygon class="st0" points="63.7,-18.1 70,-14.9 70,4.3 63.7,2.9 "/>
<polygon class="st0" points="51.5,-24.3 34,-33 34,17 51.5,17 "/>
<polygon class="st1" points="40.7,5.5 63.7,2.9 63.7,-18.1 40.7,-11.9 "/>
<polygon class="st2" points="70,4.3 48,6.3 40.7,5.5 63.5,2.9 "/>
<polygon class="st1" points="21.6,17 34,17 34,-33 21.6,-26.8 "/>
<polygon class="st1" points="4.3,52.1 -2,48.9 -2,29.7 4.3,31.1 "/>
<polygon class="st1" points="16.5,58.3 34,67 34,17 16.5,17 "/>
<polygon class="st0" points="27.3,28.5 4.3,31.1 4.3,52.1 27.3,45.9 "/>
<polygon class="st3" points="-2,29.7 20,27.7 27.3,28.5 4.5,31.1 "/>
</svg>
