<svg xmlns="http://www.w3.org/2000/svg" viewBox="0 0 72.8 82.4"><defs><style>.a{fill:#b7ca9d;}.b{fill:#4b612c;}.c{fill:#759c3e;}</style></defs><title>Management-Tools_AmazonCloudWatch</title><polygon class="a" points="72.8 56.7 36.4 51.3 0 56.7 36.4 82.4 72.8 56.7"/><polygon class="b" points="7.3 56.1 13.4 57.9 27.9 35.8 13.4 13.6 7.3 15.9 7.3 56.1"/><polygon class="c" points="35.2 54.2 13.4 58 13.4 13.6 35.2 18.5 35.2 54.2"/><polygon class="b" points="25.5 61.6 17 59.1 17 4.3 25.5 0 50.7 32.5 25.5 61.6"/><polygon class="c" points="54.6 54.9 25.5 61.7 25.5 0 54.6 11.4 54.6 54.9"/><polygon class="b" points="36.4 69.6 0 56.7 0 64.2 36.4 82.4 36.4 69.6"/><polygon class="c" points="72.8 64.2 36.4 82.4 36.4 69.6 72.8 56.7 72.8 64.2"/><polygon class="a" points="62.6 44.3 53.7 44.3 28.6 46 36.4 64.9 62.6 44.3"/><polygon class="b" points="28.6 62.5 36.4 64.9 36.4 46.8 28.6 46 28.6 62.5"/><polygon class="c" points="62.6 44.3 36.4 46.8 36.4 64.9 62.6 57 62.6 44.3"/></svg>