<svg xmlns="http://www.w3.org/2000/svg" width="100" height="100" viewBox="0 0 100 100"><style>.st0{fill:#6B3A19;} .st1{fill:#F58536;} .st2{fill:#9D5025;} .st3{fill:#FBBF93;} .st4{fill:#FFFFFF;} .st5{fill:none;stroke:#7D7D7D;stroke-miterlimit:10;stroke-dasharray:2.1247;} .st6{clip-path:url(#SVGID_2_);enable-background:new ;} .st7{clip-path:url(#SVGID_4_);enable-background:new ;}</style><g id="Layer_1"><path class="st2" d="M19.3 24.2l-3.4 1.7v48.2l3.4 1.7 13.9-24.5z"/><path class="st1" d="M27.3 74l-8 1.8V24.2l8 1.8z"/><path class="st2" d="M23.1 22.3l4.2-2.1 20 32-20 27.6-4.2-2.1z"/><path class="st1" d="M37.2 77l-9.9 2.8V20.2l9.9 2.8z"/><path class="st2" d="M32 17.8l5.2-2.6 29.5 40.5-29.5 29.1-5.2-2.6z"/><path class="st1" d="M50 80.1l-12.8 4.7V15.2L50 19.9z"/><path class="st2" d="M43.2 12.2L50 8.8l31.8 43.5L50 91.2l-6.8-3.4z"/><path class="st1" d="M84.1 74.1L50 91.2V8.8l34.1 17.1z"/></g></svg>