<svg xmlns="http://www.w3.org/2000/svg" viewBox="0 0 68.4 82.4"><defs><style>.a{fill:#f2b0a9;}.b{fill:#5e1f18;}.c{fill:#8c3123;}.d{fill:#e05243;}</style></defs><title>Storage-Content-Delivery_AmazonCloudFront</title><polygon class="a" points="23.9 48.2 8.2 69.3 0 48.3 15 47.4 23.9 48.2"/><polygon class="a" points="44.3 48.2 60.2 69.4 68.3 48.3 53.4 47.4 44.3 48.2"/><polygon class="b" points="23.9 34.2 8.2 13 0 34.2 15.1 35.1 23.9 34.2"/><polygon class="b" points="44.3 34.2 60.2 13 68.4 34.2 53.4 35.1 44.3 34.2"/><polygon class="c" points="44.3 34.2 60.2 33 60.2 13 44.3 17.1 44.3 34.2"/><polygon class="d" points="68.4 34.2 60.2 33 60.2 13 68.4 17.1 68.4 34.2"/><polygon class="c" points="44.3 48.2 60.2 49.5 60.2 69.4 44.3 65.3 44.3 48.2"/><polygon class="d" points="68.3 48.3 60.2 49.5 60.2 69.4 68.3 65.4 68.3 48.3"/><polygon class="d" points="23.9 34.2 8.2 33 8.2 13 23.9 17.1 23.9 34.2"/><polygon class="c" points="0 34.2 8.2 33 8.2 13 0 17.1 0 34.2"/><polygon class="d" points="23.9 48.2 8.2 49.5 8.2 69.4 23.9 65.3 23.9 48.2"/><polygon class="c" points="0 48.3 8.2 49.5 8.2 69.4 0 65.3 0 48.3"/><polygon class="a" points="50.5 50.9 34.2 49.2 17.7 50.8 34.2 82.4 50.5 50.9"/><polygon class="b" points="50.5 31.6 34.2 33.2 17.7 31.6 34.2 0 50.5 31.6"/><polygon class="d" points="50.5 31.6 34.2 29.2 34.2 0 50.5 8.2 50.5 31.6"/><polygon class="c" points="17.7 31.6 34.2 29.2 34.2 0 17.7 8.3 17.7 31.6"/><polygon class="d" points="50.5 50.9 34.2 53.2 34.2 82.4 50.5 74.3 50.5 50.9"/><polygon class="c" points="17.7 50.8 34.2 53.2 34.2 82.4 17.7 74.2 17.7 50.8"/></svg>