<?xml version="1.0" encoding="utf-8"?>
<!-- Generator: Adobe Illustrator 19.1.1, SVG Export Plug-In . SVG Version: 6.00 Build 0)  -->
<svg version="1.1" id="Layer_1" xmlns="http://www.w3.org/2000/svg" xmlns:xlink="http://www.w3.org/1999/xlink" x="0px" y="0px"
	 viewBox="-16 -33 100 100" style="enable-background:new -16 -33 100 100;" xml:space="preserve">
<style type="text/css">
	.st0{fill:#9D5025;}
	.st1{fill:#F58536;}
	.st2{fill:#6B3A19;}
	.st3{fill:#FBBF93;}
</style>
<g>
	<polygon class="st0" points="5.7,-9.8 13.5,-12 48.9,-5.3 40.6,-3.9 	"/>
	<polygon class="st0" points="-0.5,44.6 6.9,46.8 48.9,39 41,37.8 	"/>
	<polygon class="st1" points="1.8,54.5 -10.6,57.3 -10.6,-23.4 1.8,-20.6 	"/>
	<polygon class="st0" points="-4.7,-26.4 1.8,-29.7 1.8,63.7 -4.7,60.4 	"/>
	<polygon class="st0" points="-10.6,-23.4 -16,-20.8 -16,54.8 -10.6,57.4 	"/>
	<polygon class="st1" points="14.6,60.1 1.8,63.7 1.8,-29.7 14.6,-26 	"/>
	<polygon class="st1" points="57.5,37.4 1.8,47.7 1.8,63.7 57.5,47.9 	"/>
	<polygon class="st1" points="57.6,-3.6 1.8,-14.2 1.8,-29.7 57.6,-13.8 	"/>
	<polygon class="st1" points="48.9,-16.3 57.8,-13.9 57.8,47.9 48.9,50.4 	"/>
	<polygon class="st0" points="40.6,37.7 48.9,39 48.9,-5.3 40.6,-3.9 	"/>
	<polygon class="st1" points="75.8,8 84,8.8 84,-7.7 75.8,-10.1 	"/>
	<polygon class="st0" points="51.6,9.4 75.8,8.1 75.8,-10.1 51.6,-6.2 	"/>
	<polygon class="st1" points="65.8,7 53.3,5.8 53.3,-16.9 65.8,-13.1 	"/>
	<polygon class="st0" points="28.7,7.9 53.3,6 53.3,-16.9 28.7,-11.1 	"/>
	<polygon class="st2" points="28.7,7.9 54.6,5.9 65.8,7 40.3,8.6 	"/>
	<polygon class="st2" points="84,8.8 60,10 51.6,9.4 76.3,8.1 	"/>
	<polygon class="st1" points="75.8,26.3 84,25.5 84,42 75.8,44.5 	"/>
	<polygon class="st0" points="51.6,24.9 75.8,26.2 75.8,44.5 51.6,40.5 	"/>
	<polygon class="st1" points="65.8,27.3 53.3,28.6 53.3,51.2 65.8,47.5 	"/>
	<polygon class="st0" points="28.7,26.5 53.3,28.3 53.3,51.2 28.7,45.5 	"/>
	<polygon class="st3" points="28.7,26.5 54.6,28.4 65.8,27.3 40.3,25.7 	"/>
	<polygon class="st3" points="84,25.5 60,24.4 51.6,24.9 76.3,26.3 	"/>
</g>
</svg>
