<svg version="1" xmlns="http://www.w3.org/2000/svg" viewBox="0 0 50 50"><path fill="#00DFFC" d="M9.773 38.326l31.25-11.374.17-.277c.245-.927.428-1.88.544-2.852l.002-.016c.08-.684.576-1.228 1.234-1.43.36-.11.71-.244 1.05-.4l.03-.01a8.49 8.49 0 0 0 3.085-2.4 8.566 8.566 0 0 0 1.835-4.156 8.658 8.658 0 0 0-2.137-.265c-1.31 0-2.55.29-3.66.814a8.96 8.96 0 0 0 .097-1.308 8.59 8.59 0 0 0-2.098-5.64 8.642 8.642 0 0 0-3.93 7.24 8.58 8.58 0 0 0 1.42 4.74c.048.078.1.156.157.234.57.8.11 1.924-.856 2.106-1.157.22-3.918.653-3.918.653v-4.937h-5.57V7.908h-5.57v5.57H11.77v5.57H6.198v4.55a89.186 89.186 0 0 1-4.68-.93.492.492 0 0 0-.602.518c.544 6.287 3.926 11.76 8.857 15.14z"/><path fill="#4DE9FD" d="M43.24 13.863a8.586 8.586 0 0 0-2.062-4.85 8.657 8.657 0 0 0-2.132 1.965 8.586 8.586 0 0 0-1.79 5.062l5.984-2.177zm-14.246 5.185h-.514V7.908h-5.57v5.57H11.77v5.57H6.198v4.55a89.186 89.186 0 0 1-4.68-.93.492.492 0 0 0-.602.518c.17 1.962.616 3.844 1.3 5.61l26.778-9.748z"/><g fill="#444"><path d="M49.2 14.526a9.65 9.65 0 0 0-5.01.077 9.542 9.542 0 0 0-2.322-6.19l-.52-.6-.668.433a9.557 9.557 0 0 0-2.357 2.173 9.45 9.45 0 0 0-1.988 5.83c0 1.856.533 3.652 1.54 5.2l.017.024c.058.093.12.187.19.282.116.164.08.325.046.406a.44.44 0 0 1-.33.272 84.519 84.519 0 0 1-3.017.52v-4.638h-5.57V7.176h-7.03v5.57H11.04v5.57H5.466v4.22a85.675 85.675 0 0 1-3.747-.76c-.44-.1-.9.017-1.24.312a1.4 1.4 0 0 0-.475 1.174c.95 10.968 10.33 19.56 21.353 19.56a21.377 21.377 0 0 0 14.436-5.59.914.914 0 0 0-1.23-1.35 19.554 19.554 0 0 1-13.206 5.113c-9.888 0-18.33-7.558-19.474-17.31 10.52 2.313 21.634 2.72 32.29 1.203a80.733 80.733 0 0 0 3.965-.66 2.26 2.26 0 0 0 1.683-1.387 2.242 2.242 0 0 0-.255-2.147l-.007-.01-.13-.2a7.665 7.665 0 0 1-1.27-4.236c0-1.723.557-3.353 1.608-4.714.363-.47.775-.893 1.23-1.265a7.712 7.712 0 0 1 1.363 4.38c0 .39-.028.784-.086 1.172l-.252 1.688 1.544-.727a7.717 7.717 0 0 1 4.327-.654 7.688 7.688 0 0 1-1.465 2.86 7.532 7.532 0 0 1-2.708 2.126l-.08.032a7.41 7.41 0 0 1-.936.356 2.656 2.656 0 0 0-1.876 2.21c-.11.92-.284 1.836-.52 2.726a.913.913 0 1 0 1.765.47c.26-.974.45-1.976.57-2.994.038-.31.266-.564.597-.666.394-.12.785-.27 1.113-.42l.078-.032a9.378 9.378 0 0 0 3.416-2.655 9.5 9.5 0 0 0 2.032-4.598L50 14.73l-.8-.204zm-15.88 5.252v3.38a89.163 89.163 0 0 1-4.11.458v-3.838h4.11zm-9.68 0h4.11v3.957a89.2 89.2 0 0 1-4.11.196V19.78zm4.11-1.46h-4.11v-4.11h4.11v4.11zm-4.11-9.68h4.11v4.11h-4.11v-4.11zm-5.57 5.57h4.11v4.11h-4.11v-4.11zm-5.57 0h4.108v4.11H12.5v-4.11zm0 9.308v-3.738h4.108v4.05a90.86 90.86 0 0 1-4.108-.312zm-5.57-3.738h4.108v3.58a89.627 89.627 0 0 1-4.11-.572v-3.008zm11.14 4.12v-4.12h4.11v4.177a92.3 92.3 0 0 1-4.11-.058z"/><path d="M8.76 31.647c0 1.66 1.35 3.01 3.01 3.01 1.66 0 3.01-1.35 3.01-3.01 0-1.66-1.35-3.01-3.01-3.01-1.66 0-3.01 1.35-3.01 3.01zm4.558 0a1.55 1.55 0 0 1-1.55 1.55c-.853 0-1.548-.696-1.548-1.55s.695-1.55 1.55-1.55a1.55 1.55 0 0 1 1.548 1.55z"/></g></svg>