<?xml version="1.0" encoding="utf-8"?>
<!-- Generator: Adobe Illustrator 18.1.0, SVG Export Plug-In . SVG Version: 6.00 Build 0)  -->
<svg version="1.1" id="Layer_1" xmlns="http://www.w3.org/2000/svg" xmlns:xlink="http://www.w3.org/1999/xlink" x="0px" y="0px"
	 viewBox="0 0 31 31" enable-background="new 0 0 31 31" xml:space="preserve">
<g>
	<path fill="#430098" d="M26.66,0H4.34C2.799,0,1.55,1.249,1.55,2.79v25.42c0,1.541,1.249,2.79,2.79,2.79h22.32
		c1.541,0,2.79-1.249,2.79-2.79V2.79C29.45,1.249,28.201,0,26.66,0 M27.9,28.21c0,0.683-0.556,1.24-1.24,1.24H4.34
		c-0.683,0-1.24-0.557-1.24-1.24V2.79c0-0.684,0.557-1.24,1.24-1.24h22.32c0.684,0,1.24,0.556,1.24,1.24V28.21z"/>
	<polygon fill="#430098" points="8.525,26.35 12.012,23.25 8.525,20.15 	"/>
	<path fill="#430098" d="M21.125,13.785c-0.625-0.632-1.772-1.385-3.688-1.385c-2.102,0-4.265,0.546-5.812,1.05V4.65h-3.1v13.444
		l2.19-0.993c0.035-0.015,3.57-1.601,6.723-1.601c1.574,0,1.922,0.869,1.937,1.593v9.258h3.1v-9.3
		C22.477,16.852,22.459,15.133,21.125,13.785"/>
	<path fill="#430098" d="M17.05,9.687h3.1c1.402-1.589,2.116-3.277,2.325-5.037h-3.1C19.033,6.407,18.268,8.089,17.05,9.687"/>
</g>
<g>
</g>
<g>
</g>
<g>
</g>
<g>
</g>
<g>
</g>
<g>
</g>
<g>
</g>
<g>
</g>
<g>
</g>
<g>
</g>
<g>
</g>
<g>
</g>
<g>
</g>
<g>
</g>
<g>
</g>
</svg>
