<svg xmlns="http://www.w3.org/2000/svg" width="180" height="180" viewBox="32.98 2.305 180 180" enable-background="new 32.98 2.305 180 180"><g><g><path fill="#A57242" d="M147.614 125.19v19.573h-2.47v-3.354c-2.236 2.679-4.792 4.018-7.667 4.018s-5.308-1.02-7.298-3.059c-1.966-2.064-2.949-4.509-2.949-7.335 0-2.851.995-5.283 2.986-7.298 1.99-2.04 4.374-3.059 7.151-3.059 3.195 0 5.787 1.364 7.778 4.092v-3.576h2.469m-2.322 9.877c0-2.236-.75-4.116-2.249-5.64-1.499-1.548-3.342-2.322-5.529-2.322-2.162 0-3.993.799-5.492 2.396-1.499 1.573-2.249 3.44-2.249 5.603s.762 4.042 2.285 5.64c1.524 1.573 3.342 2.359 5.455 2.359 2.138 0 3.969-.762 5.492-2.285s2.287-3.441 2.287-5.751"/><path fill="#A57242" d="M153.242 144.763v-26.466h5.492c3.76 0 6.512.283 8.257.848 1.769.541 3.293 1.413 4.571 2.617 1.278 1.18 2.261 2.629 2.949 4.35.688 1.72 1.032 3.735 1.032 6.045 0 2.285-.541 4.448-1.622 6.487-1.057 2.015-2.506 3.539-4.35 4.571-1.818 1.032-4.448 1.548-7.888 1.548h-8.441m2.544-2.506h3.059c3.195 0 5.504-.16 6.93-.479 1.45-.319 2.715-.946 3.797-1.88 1.081-.958 1.905-2.113 2.47-3.465s.848-2.9.848-4.644c0-1.745-.332-3.354-.995-4.829-.639-1.474-1.56-2.691-2.765-3.649-1.204-.958-2.63-1.597-4.276-1.917-1.622-.344-4.018-.516-7.188-.516h-1.88v21.379"/><path fill="#A57242" d="M119.116 119.735c0-.565.197-1.057.59-1.474.418-.418.909-.627 1.474-.627.59 0 1.081.209 1.474.627.418.393.627.885.627 1.474 0 .565-.209 1.057-.627 1.474-.393.393-.885.59-1.474.59-.565 0-1.057-.209-1.474-.627-.393-.417-.59-.897-.59-1.437m.811 5.455h2.543v19.573h-2.543v-19.573"/><path fill="#A57242" d="M49.011 144.763l3.76-26.466h.405l10.763 21.711 10.69-21.711h.405l3.797 26.466h-2.617l-2.58-18.946-9.363 18.946h-.664l-9.473-19.094-2.58 19.094h-2.543"/><path fill="#A57242" d="M103.035 125.19v19.573h-2.47v-3.354c-2.236 2.679-4.792 4.018-7.667 4.018s-5.308-1.02-7.298-3.059c-1.966-2.064-2.949-4.509-2.949-7.335 0-2.851.995-5.283 2.986-7.298 1.99-2.04 4.374-3.059 7.151-3.059 3.195 0 5.787 1.364 7.778 4.092v-3.576h2.469m-2.322 9.877c0-2.236-.75-4.116-2.248-5.64-1.499-1.548-3.342-2.322-5.529-2.322-2.163 0-3.993.799-5.492 2.396-1.499 1.573-2.248 3.44-2.248 5.603s.762 4.042 2.285 5.64c1.524 1.573 3.342 2.359 5.455 2.359 2.138 0 3.969-.762 5.492-2.285s2.285-3.441 2.285-5.751"/><path fill="#A57242" d="M107.301 125.19h2.58v2.838c.688-1.155 1.352-2.003 1.99-2.543.663-.541 1.388-.811 2.175-.811.811 0 1.622.221 2.433.664l-1.327 2.138c-.369-.221-.75-.332-1.143-.332-.762 0-1.487.393-2.175 1.18-.663.786-1.155 1.806-1.474 3.059-.32 1.229-.479 3.477-.479 6.746v6.635h-2.58v-19.574"/><path fill="#A57242" d="M181.062 118.297h5.234c2.777 0 4.878.565 6.303 1.696 1.45 1.106 2.175 2.703 2.175 4.792 0 1.155-.295 2.224-.885 3.207-.565.958-1.401 1.732-2.506 2.322 1.818.59 3.195 1.474 4.128 2.654.958 1.18 1.438 2.58 1.438 4.202 0 2.187-.799 4.006-2.396 5.455-1.597 1.425-3.661 2.138-6.193 2.138h-7.298v-26.466m2.617 2.58v8.478h1.511c2.31 0 4.03-.369 5.161-1.106 1.13-.737 1.696-1.892 1.696-3.465 0-2.605-1.769-3.907-5.308-3.907h-3.06m0 11.132v10.174h3.281c1.892 0 3.281-.184 4.165-.553.909-.393 1.646-.983 2.212-1.769.565-.811.848-1.634.848-2.47s-.16-1.573-.479-2.212c-.32-.639-.799-1.204-1.438-1.696-.614-.491-1.364-.86-2.248-1.106-.86-.246-2.482-.369-4.866-.369h-1.475"/></g><g><path fill="#002B64" d="M176.877 35.955c-1.742.056-1.191.558-4.956 1.484-3.802.936-8.446.649-12.54 2.366-12.221 5.125-14.674 22.644-25.784 28.919-8.305 4.691-16.684 5.065-24.217 7.426-4.951 1.552-10.366 4.736-14.851 8.601-3.482 3.001-3.572 5.64-7.21 9.405-3.891 4.026-15.464.068-20.71 6.23 1.69 1.708 2.43 2.187 5.76 1.744-.689 1.307-4.753 2.408-3.958 4.33.837 2.023 10.662 3.394 19.593-1.998 4.159-2.511 7.472-6.131 13.95-6.995 8.383-1.117 18.039.717 27.743 2.116-1.439 4.29-4.328 7.144-6.642 10.561-.717.772 1.439.858 3.899.392 4.425-1.094 7.613-1.975 10.952-3.919 4.102-2.388 4.724-8.511 9.757-9.836 2.804 4.31 10.432 5.329 15.165 1.881-4.153-1.176-5.301-10.016-3.899-13.911 1.328-3.687 2.64-9.585 3.977-14.459 1.436-5.235 1.965-11.832 3.703-14.499 2.614-4.012 5.503-5.389 8.011-7.651 2.508-2.262 4.803-4.464 4.728-9.64-.023-1.668-.885-2.597-2.471-2.547z"/><path fill="#C49A6C" d="M70.217 106.091c6.36.911 10.228 0 15.335-2.215 4.346-1.885 8.542-5.77 13.674-7.417 7.537-2.418 15.801.003 23.858.486 1.962.118 3.911.119 5.835-.09 3.001-1.845 2.939-8.744 5.86-9.376-.086 9.68-4.055 15.48-8.205 21.097 8.747-1.545 13.982-6.604 17.518-13.362 1.073-2.049 1.989-4.253 2.799-6.564 1.252.961.542 3.885 1.172 5.47 6.025-3.356 9.475-11.016 11.76-18.763 2.643-8.966 3.725-18.044 5.43-20.697 1.664-2.589 4.253-4.186 6.617-5.843 2.686-1.885 5.082-3.849 5.495-7.44-2.833-.262-3.488-.917-3.907-2.345-1.418.799-2.722.971-4.196 1.014-1.278.039-2.683-.018-4.398.158-14.186 1.457-15.989 17.093-25.082 25.957-.661.645-1.377 1.246-2.133 1.81-3.184 2.373-7.091 4.069-10.684 5.442-5.815 2.222-11.344 2.38-16.8 4.298-4.005 1.408-8.075 3.45-11.364 5.701-.823.562-1.598 1.139-2.31 1.722-1.93 1.579-3.198 3.332-4.423 5.134-1.264 1.858-2.485 3.769-4.346 5.594-3.014 2.96-14.279.863-18.244 3.608-.442.305-.793.672-1.032 1.112 2.164.983 3.609.38 6.098.655.327 2.362-5.135 3.766-4.327 4.854z"/><path fill="#C49A6C" d="M156.164 89.075c.169 2.71 1.742 8.086 3.131 9.393-2.72.661-7.405-.431-8.607-2.35.618-2.77 3.831-5.303 5.476-7.043z"/><path fill="#002B64" d="M160.148 46.07c2.008 1.744 6.222.344 5.469-3.125-3.12-.258-4.928.801-5.469 3.125z"/><path fill="#002B64" d="M174.149 42.016c-.534 1.12-1.557 2.565-1.557 5.417-.004.49-.372.825-.378.07.028-2.788.766-3.993 1.549-5.576.365-.649.584-.381.386.089z"/><path fill="#002B64" d="M173.611 41.594c-.63 1.069-2.147 3.019-2.398 5.86-.046.487-.443.789-.382.036.273-2.774 1.486-4.51 2.406-6.019.417-.614.614-.328.374.123z"/><path fill="#002B64" d="M173.121 41.035c-.718 1.012-3.053 3.354-3.542 6.164-.088.481-.508.749-.384.004.505-2.742 2.519-4.897 3.562-6.322.468-.577.639-.276.364.154z"/><path fill="#002B64" d="M172.683 40.411c-.853.901-3.637 3.887-4.515 6.601-.155.464-.609.671-.381-.05.885-2.643 3.324-5.49 4.557-6.754.546-.507.672-.184.339.203z"/></g></g></svg>