<svg width="256" height="251" viewBox="0 0 256 251" xmlns="http://www.w3.org/2000/svg" preserveAspectRatio="xMidYMid"><g fill="#DF4F4F"><path d="M.44.438L219.3 232.266s7.457 5.26 13.158-.877c5.702-6.136 1.316-12.27 1.316-12.27L.44.437zM69.738 22.35l166.668 179.677s7.456 5.26 13.158-.876c5.702-6.134 1.316-12.27 1.316-12.27L69.738 22.35zM21.053 69.242L187.72 248.92s7.457 5.258 13.16-.878c5.7-6.135 1.315-12.27 1.315-12.27L21.053 69.242zM128.32 41.194l116.442 125.53s5.21 3.674 9.193-.612c3.983-4.287.92-8.573.92-8.573L128.32 41.193zM37.092 123.583l116.44 125.53s5.21 3.674 9.194-.613c3.983-4.286.92-8.572.92-8.572L37.09 123.583zM188.16 68.365l52.775 57.067s2.577 1.722 4.547-.287c1.97-2.008.455-4.017.455-4.017L188.16 68.365zM66.23 181.43l52.774 57.067s2.577 1.722 4.547-.286c1.972-2.008.456-4.016.456-4.016L66.23 181.43z"/></g></svg>