<?xml version="1.0" encoding="UTF-8"?>
<svg width="64px" height="64px" viewBox="0 0 64 64" version="1.1" xmlns="http://www.w3.org/2000/svg" xmlns:xlink="http://www.w3.org/1999/xlink">
    <!-- Generator: Sketch 41.2 (35397) - http://www.bohemiancoding.com/sketch -->
    <title>icon/backend/deploy/cordova</title>
    <desc>Created with Sketch.</desc>
    <defs></defs>
    <g id="Icons" stroke="none" stroke-width="1" fill="none" fill-rule="evenodd" stroke-linecap="round" stroke-opacity="0.4" stroke-linejoin="round">
        <g id="icon/backend/deploy/cordova" stroke="#000000" stroke-width="0.5">
            <g id="outline" transform="translate(0.000000, 2.000000)">
                <polygon id="line" points="49.2975326 46.7826513 14.4689042 46.7826513 11.6373333 23.2804291 17.4420843 11.3877088 26.7863295 11.3877088 26.2200153 15.6351264 37.8295172 15.6351264 37.2632031 11.3877088 46.6074483 11.3877088 52.4121992 23.2804291"></polygon>
                <path d="M41.2275249,27.5278467 C42.0770575,27.5278467 42.6433716,29.9347126 42.6433716,32.9078927 C42.6433716,35.8810728 41.9354483,38.2879387 41.2275249,38.2879387 C40.3779923,38.2879387 39.8116782,35.8810728 39.8116782,32.9078927 C39.8116782,29.9347126 40.5196015,27.5278467 41.2275249,27.5278467 Z" id="line"></path>
                <path d="M22.9637395,27.9525517 C23.813272,27.9525517 24.3795862,30.3594176 24.3795862,33.3325977 C24.3795862,36.3057778 23.6716628,38.7126437 22.9637395,38.7126437 C22.1142069,38.7126437 21.5478927,36.3057778 21.5478927,33.3325977 C21.5478927,30.3594176 22.2558161,27.9525517 22.9637395,27.9525517 Z" id="line"></path>
                <polygon id="line" points="49.2975326 0.061302682 14.4689042 0.061302682 0.0277088123 22.5725057 5.83245977 59.5249042 16.1678467 59.5249042 15.4599234 51.030069 20.556751 51.030069 21.2646743 59.5249042 42.6433716 59.5249042 43.351295 51.030069 48.4481226 51.030069 47.7401992 59.5249042 58.0755862 59.5249042 63.8803372 22.5725057"></polygon>
            </g>
        </g>
    </g>
</svg>