<?xml version="1.0" encoding="UTF-8"?>
<svg width="64px" height="64px" viewBox="0 0 64 64" version="1.1" xmlns="http://www.w3.org/2000/svg" xmlns:xlink="http://www.w3.org/1999/xlink">
    <!-- Generator: Sketch 41.2 (35397) - http://www.bohemiancoding.com/sketch -->
    <title>icon/backend/deploy/docker</title>
    <desc>Created with Sketch.</desc>
    <defs></defs>
    <g id="Icons" stroke="none" stroke-width="1" fill="none" fill-rule="evenodd" stroke-linecap="round" stroke-opacity="0.4" stroke-linejoin="round">
        <g id="icon/backend/deploy/docker" stroke="#000000" stroke-width="0.5">
            <g id="outline" transform="translate(1.000000, 9.000000)">
                <path d="M61.9960784,9.44439216 C59.9284395,8.92247514 57.7596427,8.95580795 55.7090196,9.54101961 C55.6944115,6.6872355 54.6610507,3.93249678 52.7951373,1.77317647 L52.1425882,1.02023529 L51.3043137,1.56360784 C50.1718709,2.29954884 49.1718703,3.22148411 48.3465098,4.2905098 C46.7211753,6.38213649 45.8429167,8.95771372 45.8517647,11.6065882 C45.8517647,13.9356863 46.5206275,16.1894902 47.7843137,18.1320784 C47.8784314,18.278902 47.9562353,18.3968627 48.0440784,18.5160784 C48.1896471,18.7218824 48.1444706,18.9239216 48.1018039,19.0255686 C48.0320579,19.2032885 47.8754529,19.332369 47.6876863,19.366902 C46.4297165,19.6072589 45.1674964,19.824811 43.9016471,20.019451 L43.9016471,14.1992157 L36.9118431,14.1992157 L36.9118431,0.220862745 L28.0898824,0.220862745 L28.0898824,7.21066667 L14.1090196,7.21066667 L14.1090196,14.2004706 L7.11419608,14.2004706 L7.11419608,19.4961569 C5.53992435,19.2132648 3.97216154,18.8952771 2.41207843,18.5424314 C1.85992157,18.4169412 1.28266667,18.5637647 0.856,18.9339608 C0.433848273,19.3019696 0.212441444,19.849194 0.259921569,20.4072157 C1.45207843,34.1709804 13.2230588,44.953098 27.0558431,44.953098 C33.7587577,44.9601732 40.2214796,42.4576368 45.1716078,37.9381961 C51.3043137,32 52.9470339,25.3782424 53.0523922,24.9825882 C53.3786667,23.7603137 53.617098,22.502902 53.7676863,21.2254118 C53.8153725,20.8363922 54.1014902,20.5176471 54.5168627,20.3896471 C55.0112941,20.2390588 55.5019608,20.0508235 55.9135686,19.8625882 C57.6805158,19.0611354 59.1484923,17.9201876 60.2981961,16.4906667 C61.6508708,14.8311799 62.5316972,12.8380501 62.8481569,10.7206275 L63,9.70039216 L61.9960784,9.44439216 Z" id="line"></path>
                <path d="M16.9676863,30.9295686 C16.9676863,31.4454407 16.7627569,31.940184 16.3979802,32.3049606 C16.0332036,32.6697373 15.5384603,32.8746667 15.0225882,32.8746667 C13.9521569,32.8746667 13.08,32.0012549 13.08,30.9295686 C13.08,29.8578824 13.9521569,28.9844706 15.025098,28.9844706 C16.0983658,28.9858555 16.9676872,29.8563 16.9676863,30.9295686 L16.9676863,30.9295686 Z" id="line"></path>
            </g>
        </g>
    </g>
</svg>