<?xml version="1.0" encoding="UTF-8"?>
<svg width="64px" height="64px" viewBox="0 0 64 64" version="1.1" xmlns="http://www.w3.org/2000/svg" xmlns:xlink="http://www.w3.org/1999/xlink">
    <!-- Generator: Sketch 41.2 (35397) - http://www.bohemiancoding.com/sketch -->
    <title>icon/backend/deploy/git</title>
    <desc>Created with Sketch.</desc>
    <defs></defs>
    <g id="Icons" stroke="none" stroke-width="1" fill="none" fill-rule="evenodd" stroke-linecap="round" stroke-opacity="0.4" stroke-linejoin="round">
        <g id="icon/backend/deploy/git" stroke="#000000" stroke-width="0.5">
            <g id="outline">
                <path d="M62.7926387,34.850455 L34.8497612,62.79277 C33.2412687,64.40241 30.6312812,64.40241 29.02063,62.79277 L23.21873,56.98971 L30.578765,49.629255 C32.2895737,50.20687 34.25119,49.81919 35.6142375,48.45584 C36.9855025,47.08399 37.3696212,45.10548 36.7773187,43.388715 L43.87157,36.29516 C45.5882987,36.886915 47.5676062,36.50439 48.9388725,35.131215 C50.8542437,33.216365 50.8542437,30.11222 48.9388725,28.19577 C47.02211,26.279245 43.9186537,26.279245 42.001055,28.19577 C40.5604875,29.63776 40.20409,31.754735 40.9345775,33.529795 L34.317845,40.146105 L34.317845,22.735465 C34.7844287,22.50422 35.2251737,22.196225 35.6142375,21.80827 C37.5296062,19.89307 37.5296062,16.789275 35.6142375,14.87115 C33.6988675,12.956575 30.5931825,12.956575 28.6792062,14.87115 C26.7638362,16.789275 26.7638362,19.89307 28.6792062,21.80827 C29.152615,22.28113 29.70083,22.63886 30.2857487,22.87832 L30.2857487,40.44999 C29.70083,40.68945 29.1539387,41.044185 28.6792062,41.52032 C27.22854,42.97053 26.879455,45.100045 27.6235937,46.88186 L20.3674762,54.13917 L1.20696757,34.979935 C-0.402322538,33.368975 -0.402322538,30.758935 1.20696757,29.149365 L29.1512225,1.20699 C30.7599937,-0.40233 33.369145,-0.40233 34.9803537,1.20699 L62.7926387,29.019885 C64.4024537,30.62973 64.4024537,33.241095 62.7926387,34.850455" id="line"></path>
            </g>
        </g>
    </g>
</svg>