<?xml version="1.0" encoding="UTF-8"?>
<svg width="64px" height="64px" viewBox="0 0 64 64" version="1.1" xmlns="http://www.w3.org/2000/svg" xmlns:xlink="http://www.w3.org/1999/xlink">
    <!-- Generator: Sketch 41.2 (35397) - http://www.bohemiancoding.com/sketch -->
    <title>icon/backend/deploy/heroku</title>
    <desc>Created with Sketch.</desc>
    <defs></defs>
    <g id="Icons" stroke="none" stroke-width="1" fill="none" fill-rule="evenodd" stroke-linecap="round" stroke-opacity="0.4" stroke-linejoin="round">
        <g id="icon/backend/deploy/heroku" stroke="#000000" stroke-width="0.5">
            <g id="outline" transform="translate(17.000000, 9.000000)">
                <polygon id="line" points="0.535483871 45.4 7.73445161 39 0.535483871 32.6"></polygon>
                <path d="M26.5483871,19.4593548 C25.2580645,18.1545806 22.8900645,16.6 18.9344516,16.6 C14.5948387,16.6 10.1292903,17.7272258 6.93548387,18.7677419 L6.93548387,0.6 L0.535483871,0.6 L0.535483871,28.3553548 L5.05677419,26.3052903 C5.12903226,26.2743226 12.4270968,23 18.9365161,23 C22.1860645,23 22.9045161,24.7940645 22.9354839,26.2887742 L22.9354839,45.4020645 L29.3354839,45.4020645 L29.3354839,26.2020645 C29.3396129,25.7912258 29.3024516,22.2423226 26.5483871,19.4593548" id="line"></path>
                <path d="M18.1354839,10.9989677 L24.5354839,10.9989677 C27.4299355,7.71845161 28.904,4.23354839 29.3354839,0.6 L22.9354839,0.6 C22.2294194,4.22735484 20.6500645,7.69987097 18.1354839,10.9989677" id="line"></path>
            </g>
        </g>
    </g>
</svg>