<?xml version="1.0" encoding="UTF-8"?>
<svg width="64px" height="64px" viewBox="0 0 64 64" version="1.1" xmlns="http://www.w3.org/2000/svg" xmlns:xlink="http://www.w3.org/1999/xlink">
    <!-- Generator: Sketch 41.2 (35397) - http://www.bohemiancoding.com/sketch -->
    <title>icon/aws/compute/lambda</title>
    <desc>Created with Sketch.</desc>
    <defs>
        <polygon id="path-1" points="0 0 0 64 4.75 64 4.75 0"></polygon>
        <polygon id="path-3" points="0 0 64 0 64 29.5 46 29.5 46 34.5 64 34.5 64 64 0 64"></polygon>
        <polygon id="path-5" points="2.84217094e-14 0 24.5 0 24.5 64 0 64"></polygon>
        <polygon id="path-7" points="2.84217094e-14 0 13.5 0 13.5 64 0 64"></polygon>
    </defs>
    <g id="Icons" stroke="none" stroke-width="1" fill="none" fill-rule="evenodd">
        <g id="icon/aws/compute/lambda">
            <g id="outline">
                <polygon id="line" stroke-opacity="0.4" stroke="#000000" stroke-width="0.5" stroke-linecap="round" stroke-linejoin="round" points="53.5 32 45 42.25 45 21.75"></polygon>
                <polygon id="line" stroke-opacity="0.4" stroke="#000000" stroke-width="0.5" stroke-linecap="round" stroke-linejoin="round" points="59 13.25 32.5 0 24.5 4 24.5 60 32.5 64 59 50.75"></polygon>
                <g id="masked" transform="translate(40.000000, 0.000000)">
                    <mask id="mask-2" fill="white">
                        <use xlink:href="#path-1"></use>
                    </mask>
                    <g id="mask"></g>
                    <polygon id="line" stroke-opacity="0.4" stroke="#000000" stroke-width="0.5" stroke-linecap="round" stroke-linejoin="round" mask="url(#mask-2)" points="-3 23 5 21.75 5 42.25 -3 41"></polygon>
                </g>
                <g id="masked">
                    <mask id="mask-4" fill="white">
                        <use xlink:href="#path-3"></use>
                    </mask>
                    <g id="mask"></g>
                    <polygon id="line" stroke-opacity="0.4" stroke="#000000" stroke-width="0.5" stroke-linecap="round" stroke-linejoin="round" mask="url(#mask-4)" points="51.5 20 40.25 17.25 40.25 46.5 51.5 43.5"></polygon>
                </g>
                <g id="masked">
                    <mask id="mask-6" fill="white">
                        <use xlink:href="#path-5"></use>
                    </mask>
                    <g id="mask"></g>
                    <polygon id="line" stroke-opacity="0.4" stroke="#000000" stroke-width="0.5" stroke-linecap="round" stroke-linejoin="round" mask="url(#mask-6)" points="28 10 18.25 7 13.5 9.5 13.5 54.25 18.25 56.5 28 53.5"></polygon>
                </g>
                <g id="masked">
                    <mask id="mask-8" fill="white">
                        <use xlink:href="#path-7"></use>
                    </mask>
                    <g id="mask"></g>
                    <polygon id="line" stroke-opacity="0.4" stroke="#000000" stroke-width="0.5" stroke-linecap="round" stroke-linejoin="round" mask="url(#mask-8)" points="17 13.25 9.5 11.5 6 13.25 6 50.5 9.5 52.25 17 50.5"></polygon>
                </g>
            </g>
        </g>
    </g>
</svg>