<?xml version="1.0" encoding="UTF-8"?>
<svg width="64px" height="64px" viewBox="0 0 64 64" version="1.1" xmlns="http://www.w3.org/2000/svg" xmlns:xlink="http://www.w3.org/1999/xlink">
    <!-- Generator: Sketch 41.2 (35397) - http://www.bohemiancoding.com/sketch -->
    <title>icon/aws/management/cloudtrail</title>
    <desc>Created with Sketch.</desc>
    <defs>
        <polygon id="path-1" points="0 0 10 0 10 27.75 16 27.75 16 36 10 36 10 64 0 64"></polygon>
        <polygon id="path-3" points="0 0 20.25 0 20.25 64 0 64"></polygon>
    </defs>
    <g id="Icons" stroke="none" stroke-width="1" fill="none" fill-rule="evenodd">
        <g id="icon/aws/management/cloudtrail">
            <g id="outline">
                <polygon id="line" stroke-opacity="0.4" stroke="#000000" stroke-width="0.5" stroke-linecap="round" stroke-linejoin="round" points="31.25 0 57.5 13.25 57.5 50.25 31.5 63.5 20 58 20.25 5.5"></polygon>
                <g id="masked">
                    <mask id="mask-2" fill="white">
                        <use xlink:href="#path-1"></use>
                    </mask>
                    <g id="mask"></g>
                    <polygon id="line" stroke-opacity="0.4" stroke="#000000" stroke-width="0.5" stroke-linecap="round" stroke-linejoin="round" mask="url(#mask-2)" points="5 20.5 5 28 11 28.5 12.5 28.25 12.5 20.75 6.75 20"></polygon>
                    <polygon id="line" stroke-opacity="0.4" stroke="#000000" stroke-width="0.5" stroke-linecap="round" stroke-linejoin="round" mask="url(#mask-2)" points="5 35.75 5 43.25 6.5 43.75 12.5 43 12.5 35.75 11 35.5"></polygon>
                </g>
                <g id="masked">
                    <mask id="mask-4" fill="white">
                        <use xlink:href="#path-3"></use>
                    </mask>
                    <g id="mask"></g>
                    <polygon id="line" stroke-opacity="0.4" stroke="#000000" stroke-width="0.5" stroke-linecap="round" stroke-linejoin="round" mask="url(#mask-4)" points="10.25 14.75 14.75 13.25 23 15 23 27 18.75 28 10.25 27.5"></polygon>
                    <polygon id="line" stroke-opacity="0.4" stroke="#000000" stroke-width="0.5" stroke-linecap="round" stroke-linejoin="round" mask="url(#mask-4)" points="10 49 14.75 50.5 23 48.75 23 36.5 18.5 35.75 10 36"></polygon>
                </g>
            </g>
        </g>
    </g>
</svg>