<?xml version="1.0" encoding="UTF-8"?>
<svg width="64px" height="64px" viewBox="0 0 64 64" version="1.1" xmlns="http://www.w3.org/2000/svg" xmlns:xlink="http://www.w3.org/1999/xlink">
    <!-- Generator: Sketch 41.2 (35397) - http://www.bohemiancoding.com/sketch -->
    <title>icon/aws/management/iam</title>
    <desc>Created with Sketch.</desc>
    <defs></defs>
    <g id="Icons" stroke="none" stroke-width="1" fill="none" fill-rule="evenodd" stroke-linecap="round" stroke-opacity="0.4" stroke-linejoin="round">
        <g id="icon/aws/management/iam" stroke="#000000" stroke-width="0.5">
            <g id="outline" transform="translate(15.000000, 0.000000)">
                <polygon id="line" points="-5.68434189e-14 13 -2.84217094e-14 22.5 2.5 22.75 2.5 27 8.75 27.5 8.75 54.25 12.5 55.75 12.5 61.75 16.75 64 21 61.75 21 56 28 53 28 47.75 21 46 21 44 28 42.5 28 37.25 30.75 37 30.75 32 24.5 32 24.5 27.5 30.75 27 30.75 22.75 33.25 22.5 33.25 13 31 12 31 7 16.75 0 2.75 7 2.75 12"></polygon>
                <polygon id="line" points="13 11 16.75 9.5 20.5 11 20.5 19.75 17 19 13 19.75"></polygon>
            </g>
        </g>
    </g>
</svg>