<?xml version="1.0" encoding="UTF-8"?>
<svg width="64px" height="64px" viewBox="0 0 64 64" version="1.1" xmlns="http://www.w3.org/2000/svg" xmlns:xlink="http://www.w3.org/1999/xlink">
    <!-- Generator: Sketch 41.2 (35397) - http://www.bohemiancoding.com/sketch -->
    <title>icon/backend/data/apollo</title>
    <desc>Created with Sketch.</desc>
    <defs></defs>
    <g id="Icons" stroke="none" stroke-width="1" fill="none" fill-rule="evenodd" stroke-linecap="round" stroke-opacity="0.4" stroke-linejoin="round">
        <g id="icon/backend/data/apollo" stroke="#000000" stroke-width="0.5">
            <g id="outline" transform="translate(3.000000, 0.000000)">
                <polygon id="line" points="35.0628899 17.9551415 28.5845959 17.9551415 19.2307613 42.2302903 25.0905648 42.2302903 26.6193367 38.1180353 35.4572741 38.1180353 33.8573532 33.5682269 28.0377875 33.5682269 31.8230767 23.1229073 38.556921 42.2302903 44.416458 42.2302903"></polygon>
                <path d="M55.094944,49.5975476 C54.6451328,49.5975476 54.2480838,49.8203214 54.0055908,50.1619434 C54.0055908,50.1619434 52.839759,51.4919243 52.2116755,52.1216067 C49.5525132,54.780769 46.4557975,56.8680742 43.0094656,58.3254305 C39.4421537,59.8344831 35.6518014,60.5995352 31.742601,60.5995352 C27.8328676,60.5995352 24.0425154,59.8344831 20.4757364,58.3254305 C17.028605,56.8672747 13.9324224,54.7799696 11.273793,52.1216067 C8.61463067,49.4619114 6.52705901,46.3651958 5.06890326,42.9191303 C3.56065006,39.3510189 2.79506499,35.5609332 2.79506499,31.6519992 C2.79506499,27.7430653 3.56065006,23.9521801 5.06890326,20.3851346 C6.52705901,16.9380033 8.61463067,13.842087 11.273793,11.1829247 C13.9329553,8.52376241 17.029138,6.43645722 20.4757364,4.978035 C24.0427819,3.46951532 27.8328676,2.70446321 31.742601,2.70446321 C35.6518014,2.70446321 39.4426866,3.46951532 43.0094656,4.978035 C45.5202009,6.04020766 47.8436037,7.43760692 49.9487627,9.14598348 C49.8363099,9.47721293 49.7734216,9.83242522 49.7734216,10.2020272 C49.7734216,12.0060686 51.235841,13.4684879 53.0393494,13.4684879 C54.8436573,13.4684879 56.3058102,12.0060686 56.3058102,10.2020272 C56.3058102,8.39771934 54.8436573,6.93583293 53.0393494,6.93583293 C52.59167,6.93583293 52.1645093,7.02616824 51.775721,7.1897844 C46.3217602,2.717787 39.3459559,0.0327765272 31.742601,0.0327765272 C14.2791074,0.0327765272 0.122578882,14.1893051 0.122578882,31.6527986 C0.122578882,49.1162922 14.2791074,63.2730872 31.742601,63.2730872 C41.511072,63.2730872 50.2413532,58.8399953 56.0411997,51.8791137 C56.2823603,51.6374201 56.4326527,51.3035259 56.4326527,50.9349898 C56.4321197,50.1952529 55.8341479,49.5975476 55.094944,49.5975476 Z" id="line"></path>
            </g>
        </g>
    </g>
</svg>