<?xml version="1.0" encoding="UTF-8"?>
<svg width="64px" height="64px" viewBox="0 0 64 64" version="1.1" xmlns="http://www.w3.org/2000/svg" xmlns:xlink="http://www.w3.org/1999/xlink">
    <!-- Generator: Sketch 41.2 (35397) - http://www.bohemiancoding.com/sketch -->
    <title>icon/backend/data/gql</title>
    <desc>Created with Sketch.</desc>
    <defs></defs>
    <g id="Icons" stroke="none" stroke-width="1" fill="none" fill-rule="evenodd">
        <g id="icon/backend/data/gql">
            <g id="outline" transform="translate(3.000000, 0.000000)">
                <path d="M48.2253612,49.6717105 C45.6215701,48.1749205 44.7274244,44.8351655 46.2277124,42.2252894 C47.7245025,39.6214984 51.0642575,38.7273527 53.6741336,40.2276407 C56.2958276,41.7413574 57.18703,45.0651318 55.6724371,47.6729295 C55.6032532,47.7934486 55.6439426,47.9457057 55.7629578,48.0148343 C55.8823502,48.084182 56.0353543,48.0436127 56.104702,47.9242203 C57.7585402,45.0768905 56.7851871,41.4465463 53.9237319,39.7943966 C51.0744427,38.1564813 47.4288763,39.1325013 45.7942312,41.9761026 C44.1565531,44.8249803 45.132573,48.4705466 47.9761744,50.1051917 C50.825052,51.7428699 54.4706184,50.76685 56.1052635,47.9232486 C56.1740745,47.8035461 56.1328188,47.6507257 56.0131163,47.5819146 C55.893792,47.513321 55.7415587,47.5540997 55.6724371,47.6729295 C54.1748545,50.2778897 50.8351834,51.1719676 48.2253612,49.6717105 Z" id="line" fill-opacity="0.4" fill="#000000"></path>
                <path d="M26.2253612,62.6717105 C23.6215701,61.1749205 22.7274244,57.8351655 24.2277124,55.2252894 C25.7245025,52.6214984 29.0642575,51.7273527 31.6741336,53.2276407 C34.2958276,54.7413574 35.18703,58.0651318 33.6724371,60.6729295 C33.6032532,60.7934486 33.6439426,60.9457057 33.7629578,61.0148343 C33.8823502,61.084182 34.0353543,61.0436127 34.104702,60.9242203 C35.7585402,58.0768905 34.7851871,54.4465463 31.9237319,52.7943966 C29.0744427,51.1564813 25.4288763,52.1325013 23.7942312,54.9761026 C22.1565531,57.8249803 23.132573,61.4705466 25.9761744,63.1051917 C28.825052,64.7428699 32.4706184,63.76685 34.1052635,60.9232486 C34.1740745,60.8035461 34.1328188,60.6507257 34.0131163,60.5819146 C33.893792,60.513321 33.7415587,60.5540997 33.6724371,60.6729295 C32.1748545,63.2778897 28.8351834,64.1719676 26.2253612,62.6717105 Z" id="line" fill-opacity="0.4" fill="#000000"></path>
                <path d="M3.22536116,49.6717105 C0.621570117,48.1749205 -0.272575581,44.8351655 1.22771244,42.2252894 C2.7245025,39.6214984 6.06425751,38.7273527 8.67413355,40.2276407 C11.2958276,41.7413574 12.18703,45.0651318 10.6724371,47.6729295 C10.6032532,47.7934486 10.6439426,47.9457057 10.7629578,48.0148343 C10.8823502,48.084182 11.0353543,48.0436127 11.104702,47.9242203 C12.7585402,45.0768905 11.7851871,41.4465463 8.92373193,39.7943966 C6.07444267,38.1564813 2.42887635,39.1325013 0.794231249,41.9761026 C-0.843446933,44.8249803 0.132572995,48.4705466 2.97617437,50.1051917 C5.82505204,51.7428699 9.47061836,50.76685 11.1052635,47.9232486 C11.1740745,47.8035461 11.1328188,47.6507257 11.0131163,47.5819146 C10.893792,47.513321 10.7415587,47.5540997 10.6724371,47.6729295 C9.17485455,50.2778897 5.83518341,51.1719676 3.22536116,49.6717105 Z" id="line" fill-opacity="0.4" fill="#000000"></path>
                <path d="M48.2253612,23.6717105 C45.6215701,22.1749205 44.7274244,18.8351655 46.2277124,16.2252894 C47.7245025,13.6214984 51.0642575,12.7273527 53.6741336,14.2276407 C56.2958276,15.7413574 57.18703,19.0651318 55.6724371,21.6729295 C55.6032532,21.7934486 55.6439426,21.9457057 55.7629578,22.0148343 C55.8823502,22.084182 56.0353543,22.0436127 56.104702,21.9242203 C57.7585402,19.0768905 56.7851871,15.4465463 53.9237319,13.7943966 C51.0744427,12.1564813 47.4288763,13.1325013 45.7942312,15.9761026 C44.1565531,18.8249803 45.132573,22.4705466 47.9761744,24.1051917 C50.825052,25.7428699 54.4706184,24.76685 56.1052635,21.9232486 C56.1740745,21.8035461 56.1328188,21.6507257 56.0131163,21.5819146 C55.893792,21.513321 55.7415587,21.5540997 55.6724371,21.6729295 C54.1748545,24.2778897 50.8351834,25.1719676 48.2253612,23.6717105 Z" id="line" fill-opacity="0.4" fill="#000000"></path>
                <path d="M26.2253612,10.6717105 C23.6215701,9.17492048 22.7274244,5.83516547 24.2277124,3.22528943 C25.7245025,0.621498391 29.0642575,-0.272647308 31.6741336,1.22764071 C34.2958276,2.74135745 35.18703,6.06513184 33.6724371,8.67292949 C33.6032532,8.79344856 33.6439426,8.94570574 33.7629578,9.01483432 C33.8823502,9.08418202 34.0353543,9.04361275 34.104702,8.92422033 C35.7585402,6.07689053 34.7851871,2.44654634 31.9237319,0.794396644 C29.0744427,-0.843518659 25.4288763,0.132501268 23.7942312,2.97610264 C22.1565531,5.82498031 23.132573,9.47054663 25.9761744,11.1051917 C28.825052,12.7428699 32.4706184,11.76685 34.1052635,8.92324862 C34.1740745,8.80354609 34.1328188,8.65072566 34.0131163,8.58191462 C33.893792,8.51332102 33.7415587,8.55409968 33.6724371,8.6729295 C32.1748545,11.2778897 28.8351834,12.1719676 26.2253612,10.6717105 Z" id="line" fill-opacity="0.4" fill="#000000"></path>
                <path d="M3.22536116,23.6717105 C0.621570117,22.1749205 -0.272575581,18.8351655 1.22771244,16.2252894 C2.7245025,13.6214984 6.06425751,12.7273527 8.67413355,14.2276407 C11.2958276,15.7413574 12.18703,19.0651318 10.6724371,21.6729295 C10.6032532,21.7934486 10.6439426,21.9457057 10.7629578,22.0148343 C10.8823502,22.084182 11.0353543,22.0436127 11.104702,21.9242203 C12.7585402,19.0768905 11.7851871,15.4465463 8.92373193,13.7943966 C6.07444267,12.1564813 2.42887635,13.1325013 0.794231249,15.9761026 C-0.843446933,18.8249803 0.132572995,22.4705466 2.97617437,24.1051917 C5.82505204,25.7428699 9.47061836,24.76685 11.1052635,21.9232486 C11.1740745,21.8035461 11.1328188,21.6507257 11.0131163,21.5819146 C10.893792,21.513321 10.7415587,21.5540997 10.6724371,21.6729295 C9.17485455,24.2778897 5.83518341,25.1719676 3.22536116,23.6717105 Z" id="line" fill-opacity="0.4" fill="#000000"></path>
                <path d="M23.25,7.25 L10.25,14.75" id="line" stroke-opacity="0.4" stroke="#000000" stroke-width="0.5" stroke-linecap="round" stroke-linejoin="round"></path>
                <path d="M11.5,17.25 L24.25,9.75" id="line" stroke-opacity="0.4" stroke="#000000" stroke-width="0.5" stroke-linecap="round" stroke-linejoin="round"></path>
                <path d="M7.25,39.25 L7.25,24.5" id="line" stroke-opacity="0.4" stroke="#000000" stroke-width="0.5" stroke-linecap="round" stroke-linejoin="round"></path>
                <path d="M7.75,39.25 L24.5,10" id="line" stroke-opacity="0.4" stroke="#000000" stroke-width="0.5" stroke-linecap="round" stroke-linejoin="round"></path>
                <path d="M26.75,11.5 L10,40.5" id="line" stroke-opacity="0.4" stroke="#000000" stroke-width="0.5" stroke-linecap="round" stroke-linejoin="round"></path>
                <path d="M34.5,7.75 L46.75,14.75" id="line" stroke-opacity="0.4" stroke="#000000" stroke-width="0.5" stroke-linecap="round" stroke-linejoin="round"></path>
                <path d="M33,10.5 L49.5,39.25" id="line" stroke-opacity="0.4" stroke="#000000" stroke-width="0.5" stroke-linecap="round" stroke-linejoin="round"></path>
                <path d="M47.25,40.5 L30.5,11.5" id="line" stroke-opacity="0.4" stroke="#000000" stroke-width="0.5" stroke-linecap="round" stroke-linejoin="round"></path>
                <path d="M52.75,39.25 L52.75,24.5" id="line" stroke-opacity="0.4" stroke="#000000" stroke-width="0.5" stroke-linecap="round" stroke-linejoin="round"></path>
                <path d="M50,39.25 L50,24.75" id="line" stroke-opacity="0.4" stroke="#000000" stroke-width="0.5" stroke-linecap="round" stroke-linejoin="round"></path>
                <path d="M45.25,43.75 L11.75,43.75" id="line" stroke-opacity="0.4" stroke="#000000" stroke-width="0.5" stroke-linecap="round" stroke-linejoin="round"></path>
                <path d="M11.5,46.5 L45.25,46.5" id="line" stroke-opacity="0.4" stroke="#000000" stroke-width="0.5" stroke-linecap="round" stroke-linejoin="round"></path>
                <path d="M45.5,47 L33.25,54.25" id="line" stroke-opacity="0.4" stroke="#000000" stroke-width="0.5" stroke-linecap="round" stroke-linejoin="round"></path>
                <path d="M34.5,56.25 L46.75,49" id="line" stroke-opacity="0.4" stroke="#000000" stroke-width="0.5" stroke-linecap="round" stroke-linejoin="round"></path>
                <path d="M24.25,54.25 L11.5,46.75" id="line" stroke-opacity="0.4" stroke="#000000" stroke-width="0.5" stroke-linecap="round" stroke-linejoin="round"></path>
                <path d="M10.25,49.25 L23.25,56.75" id="line" stroke-opacity="0.4" stroke="#000000" stroke-width="0.5" stroke-linecap="round" stroke-linejoin="round"></path>
                <path d="M4.5,24.5 L4.5,39.25" id="line" stroke-opacity="0.4" stroke="#000000" stroke-width="0.5" stroke-linecap="round" stroke-linejoin="round"></path>
                <path d="M45.5,17 L33.25,10" id="line" stroke-opacity="0.4" stroke="#000000" stroke-width="0.5" stroke-linecap="round" stroke-linejoin="round"></path>
            </g>
        </g>
    </g>
</svg>