<?xml version="1.0" encoding="UTF-8"?>
<svg width="64px" height="64px" viewBox="0 0 64 64" version="1.1" xmlns="http://www.w3.org/2000/svg" xmlns:xlink="http://www.w3.org/1999/xlink">
    <!-- Generator: Sketch 41.2 (35397) - http://www.bohemiancoding.com/sketch -->
    <title>icon/aws/flow/apigateway</title>
    <desc>Created with Sketch.</desc>
    <defs>
        <polygon id="path-1" points="0 60 0 0 64 0 64 60 40.25 60 40.25 50.5 47.25 48.25 47.25 41 40.25 40 40.25 24.25 47.25 23.5 47.25 16 40.5 13.75 40.5 4 24.5 4 24.5 14 17.5 16 17.5 23.5 24.5 24 24.5 40 17.5 41 17.5 48.25 24.5 50.5 24.5 60"></polygon>
    </defs>
    <g id="Icons" stroke="none" stroke-width="1" fill="none" fill-rule="evenodd">
        <g id="icon/aws/flow/apigateway">
            <g id="outline">
                <polygon id="line" stroke-opacity="0.4" stroke="#000000" stroke-width="0.5" stroke-linecap="round" stroke-linejoin="round" points="32.5 64 24.5 60 24.5 50.5 17.5 48.25 17.5 41 24.5 40 24.5 24 17.5 23.5 17.5 16 24.5 14 24.5 4 32.5 0 40.5 4 40.5 13.75 47.25 16 47.25 23.5 40.25 24.25 40.25 40 47.25 41 47.25 48.25 40.25 50.5 40.25 60"></polygon>
                <g id="masked">
                    <mask id="mask-2" fill="white">
                        <use xlink:href="#path-1"></use>
                    </mask>
                    <g id="mask"></g>
                    <polygon id="line" stroke-opacity="0.4" stroke="#000000" stroke-width="0.5" stroke-linecap="round" stroke-linejoin="round" mask="url(#mask-2)" points="59 51 59 36 46 35.5 39 36 39 51.5 51.5 54.75"></polygon>
                    <polygon id="line" stroke-opacity="0.4" stroke="#000000" stroke-width="0.5" stroke-linecap="round" stroke-linejoin="round" mask="url(#mask-2)" points="59 28.25 59 13.25 51.25 9.75 39 13 39 28.25 46 29"></polygon>
                    <polygon id="line" stroke-opacity="0.4" stroke="#000000" stroke-width="0.5" stroke-linecap="round" stroke-linejoin="round" mask="url(#mask-2)" points="26 13 13.25 9.75 6 13.25 6 28 19 28.75 26 28"></polygon>
                    <polygon id="line" stroke-opacity="0.4" stroke="#000000" stroke-width="0.5" stroke-linecap="round" stroke-linejoin="round" mask="url(#mask-2)" points="26 36 19 35.5 6 36 6 51 13.25 54.75 26 51"></polygon>
                </g>
            </g>
        </g>
    </g>
</svg>