<?xml version="1.0" encoding="UTF-8"?>
<svg width="64px" height="64px" viewBox="0 0 64 64" version="1.1" xmlns="http://www.w3.org/2000/svg" xmlns:xlink="http://www.w3.org/1999/xlink">
    <!-- Generator: Sketch 41.2 (35397) - http://www.bohemiancoding.com/sketch -->
    <title>icon/aws/flow/r53</title>
    <desc>Created with Sketch.</desc>
    <defs>
        <polygon id="path-1" points="0 0 64 0 64 32 32 32 32 39 64 39 64 64 0 64 0 23.75 32 23.75 32 14.25 0 14.25"></polygon>
    </defs>
    <g id="Icons" stroke="none" stroke-width="1" fill="none" fill-rule="evenodd">
        <g id="icon/aws/flow/r53">
            <g id="outline">
                <polygon id="line" stroke-opacity="0.4" stroke="#000000" stroke-width="0.5" stroke-linecap="round" stroke-linejoin="round" points="58 32 58 39.5 55.25 40.25 35.5 38.25 35.5 32 55.25 32"></polygon>
                <polygon id="line" stroke-opacity="0.4" stroke="#000000" stroke-width="0.5" stroke-linecap="round" stroke-linejoin="round" points="5 22 5 13.25 8.5 11.5 27.25 16 27.25 23.25 23 24"></polygon>
                <g id="masked">
                    <mask id="mask-2" fill="white">
                        <use xlink:href="#path-1"></use>
                    </mask>
                    <g id="mask"></g>
                    <polygon id="line" stroke-opacity="0.4" stroke="#000000" stroke-width="0.5" stroke-linecap="round" stroke-linejoin="round" mask="url(#mask-2)" points="20.25 5.5 31.5 0 42.75 5.5 42.75 58.25 31.5 64 20.25 58.25"></polygon>
                </g>
            </g>
        </g>
    </g>
</svg>