<?xml version="1.0" encoding="UTF-8"?>
<svg width="64px" height="64px" viewBox="0 0 64 64" version="1.1" xmlns="http://www.w3.org/2000/svg" xmlns:xlink="http://www.w3.org/1999/xlink">
    <!-- Generator: Sketch 41.2 (35397) - http://www.bohemiancoding.com/sketch -->
    <title>icon/aws/flow/sns</title>
    <desc>Created with Sketch.</desc>
    <defs>
        <polygon id="path-1" points="0 0 22.5 0 22.5 51.75 34 54 34 64 0 64"></polygon>
        <polygon id="path-3" points="-2.84217094e-14 0 9 0 9 49 18 51 18 64 -2.20881053e-29 64"></polygon>
    </defs>
    <g id="Icons" stroke="none" stroke-width="1" fill="none" fill-rule="evenodd">
        <g id="icon/aws/flow/sns">
            <g id="outline">
                <polygon id="line" stroke-opacity="0.4" stroke="#000000" stroke-width="0.5" stroke-linecap="round" stroke-linejoin="round" points="22.5 51.75 29 53 36 61 45.25 63.5 51.75 49.75 63.5 47.25 63.5 16.25 32 0.5 22.5 5.25"></polygon>
                <g id="masked">
                    <mask id="mask-2" fill="white">
                        <use xlink:href="#path-1"></use>
                    </mask>
                    <g id="mask"></g>
                    <polygon id="line" stroke-opacity="0.4" stroke="#000000" stroke-width="0.5" stroke-linecap="round" stroke-linejoin="round" mask="url(#mask-2)" points="9 49 13.5 50 18.25 55.5 24.75 57.25 28 51 28 13 15.25 9 9 12"></polygon>
                </g>
                <g id="masked">
                    <mask id="mask-4" fill="white">
                        <use xlink:href="#path-3"></use>
                    </mask>
                    <g id="mask"></g>
                    <polygon id="line" stroke-opacity="0.4" stroke="#000000" stroke-width="0.5" stroke-linecap="round" stroke-linejoin="round" mask="url(#mask-4)" points="0.75 16.25 0.75 47.5 2.75 47.75 6.25 52 10 53 13 47 13 16.5 4.5 14.5"></polygon>
                </g>
            </g>
        </g>
    </g>
</svg>