<?xml version="1.0" encoding="UTF-8"?>
<svg width="64px" height="64px" viewBox="0 0 64 64" version="1.1" xmlns="http://www.w3.org/2000/svg" xmlns:xlink="http://www.w3.org/1999/xlink">
    <!-- Generator: Sketch 41.2 (35397) - http://www.bohemiancoding.com/sketch -->
    <title>icon/aws/compute/ec2</title>
    <desc>Created with Sketch.</desc>
    <defs>
        <polygon id="path-1" points="0 0 27 0 27 64 0 64"></polygon>
        <polygon id="path-3" points="0 0 18 0 18 64 0 64"></polygon>
        <polygon id="path-5" points="11 64 11 0 0 0 0 64"></polygon>
    </defs>
    <g id="Icons" stroke="none" stroke-width="1" fill="none" fill-rule="evenodd">
        <g id="icon/aws/compute/ec2">
            <g id="outline">
                <polygon id="line" stroke-opacity="0.4" stroke="#000000" stroke-width="0.5" stroke-linecap="round" stroke-linejoin="round" points="58 50.5 58 13.75 32 0.5 27 3 27 61 32 63.5"></polygon>
                <g id="masked">
                    <mask id="mask-2" fill="white">
                        <use xlink:href="#path-1"></use>
                    </mask>
                    <g id="mask"></g>
                    <polygon id="line" stroke-opacity="0.4" stroke="#000000" stroke-width="0.5" stroke-linecap="round" stroke-linejoin="round" mask="url(#mask-2)" points="31 55 31 9 22 5.5 18 7.5 18 56.5 22 58.5"></polygon>
                </g>
                <g id="masked">
                    <mask id="mask-4" fill="white">
                        <use xlink:href="#path-3"></use>
                    </mask>
                    <g id="mask"></g>
                    <polygon id="line" stroke-opacity="0.4" stroke="#000000" stroke-width="0.5" stroke-linecap="round" stroke-linejoin="round" mask="url(#mask-4)" points="21 53 21 11 14.5 9.25 11 11 11 53 14.25 54.75"></polygon>
                </g>
                <g id="masked">
                    <mask id="mask-6" fill="white">
                        <use xlink:href="#path-5"></use>
                    </mask>
                    <g id="mask"></g>
                    <polygon id="line" stroke-opacity="0.4" stroke="#000000" stroke-width="0.5" stroke-linecap="round" stroke-linejoin="round" mask="url(#mask-6)" points="16 49.5 16 14 8.25 12.25 5.75 13.5 5.75 50.25 8.25 51.5"></polygon>
                </g>
            </g>
        </g>
    </g>
</svg>