<?xml version="1.0" encoding="UTF-8"?>
<svg width="64px" height="64px" viewBox="0 0 64 64" version="1.1" xmlns="http://www.w3.org/2000/svg" xmlns:xlink="http://www.w3.org/1999/xlink">
    <!-- Generator: Sketch 41.2 (35397) - http://www.bohemiancoding.com/sketch -->
    <title>icon/aws/management/cloudwatch</title>
    <desc>Created with Sketch.</desc>
    <defs>
        <polygon id="path-1" points="0 22 0 0 10 0 10 2 52.5 2 52.5 0 64 0 64 22"></polygon>
        <polygon id="path-3" points="0 0 64 0 64 34 26 34 26 64 0 64"></polygon>
        <polygon id="path-5" points="0 0 17 0 17 64 0 64"></polygon>
    </defs>
    <g id="Icons" stroke="none" stroke-width="1" fill="none" fill-rule="evenodd">
        <g id="icon/aws/management/cloudwatch">
            <g id="outline">
                <polygon id="line" stroke-opacity="0.4" stroke="#000000" stroke-width="0.5" stroke-linecap="round" stroke-linejoin="round" points="26 35.5 26 48.1500015 32 50 52.25 44 52.25 34.25 45.5 34"></polygon>
                <g id="masked" transform="translate(0.000000, 42.000000)">
                    <mask id="mask-2" fill="white">
                        <use xlink:href="#path-1"></use>
                    </mask>
                    <g id="mask"></g>
                    <polygon id="line" stroke-opacity="0.4" stroke="#000000" stroke-width="0.5" stroke-linecap="round" stroke-linejoin="round" mask="url(#mask-2)" points="4 1.75 4 7.5 32 21.5 60 7.5 60 1.75 29 -2"></polygon>
                </g>
                <g id="masked">
                    <mask id="mask-4" fill="white">
                        <use xlink:href="#path-3"></use>
                    </mask>
                    <g id="mask"></g>
                    <polygon id="line" stroke-opacity="0.4" stroke="#000000" stroke-width="0.5" stroke-linecap="round" stroke-linejoin="round" mask="url(#mask-4)" points="17 45.5 23.75 47.75 46 42 46 8.75 23.75 0 17 3.25"></polygon>
                </g>
                <g id="masked">
                    <mask id="mask-6" fill="white">
                        <use xlink:href="#path-5"></use>
                    </mask>
                    <g id="mask"></g>
                    <polygon id="line" stroke-opacity="0.4" stroke="#000000" stroke-width="0.5" stroke-linecap="round" stroke-linejoin="round" mask="url(#mask-6)" points="9.5 12.25 10 43 14.5 44.75 26 41 26 13 14.25 10.5"></polygon>
                </g>
            </g>
        </g>
    </g>
</svg>