<?xml version="1.0" encoding="UTF-8"?>
<svg width="64px" height="64px" viewBox="0 0 64 64" version="1.1" xmlns="http://www.w3.org/2000/svg" xmlns:xlink="http://www.w3.org/1999/xlink">
    <!-- Generator: Sketch 41.2 (35397) - http://www.bohemiancoding.com/sketch -->
    <title>icon/frontend/markup/handlebars</title>
    <desc>Created with Sketch.</desc>
    <defs></defs>
    <g id="Icons" stroke="none" stroke-width="1" fill="none" fill-rule="evenodd" stroke-linecap="round" stroke-opacity="0.4" stroke-linejoin="round">
        <g id="icon/frontend/markup/handlebars" stroke="#000000" stroke-width="0.5">
            <g id="outline" transform="translate(0.000000, 24.000000)">
                <path d="M23.6328421,0.124756335 C25.8533801,0.115150097 28.1305575,0.752280702 29.8564366,2.18785185 C30.7408343,2.9037037 31.4551891,3.80182456 32.0618791,4.75808187 C33.1534971,2.99352827 34.7480078,1.49420663 36.7142924,0.771493177 C39.1103626,-0.128 41.8186979,-0.065871345 44.2106511,0.815781676 C46.2999454,1.57854191 48.1267524,2.90782066 49.7835166,4.3697154 C51.0796101,5.51385575 52.2790175,6.76578558 53.6137856,7.8671345 C54.3171618,8.43776998 55.0729357,8.97247563 55.9379961,9.26814815 C57.0876257,9.66063158 58.447345,9.29035478 59.2694893,8.4045848 C60.0308772,7.57557895 59.9838441,6.14262768 59.1451072,5.38548148 C58.6117739,4.92525536 57.6998051,5.01782456 57.3224172,5.63125146 C56.9923119,6.11780117 57.1774503,6.72436647 57.4359454,7.19557115 C56.749037,6.69405068 56.0610058,5.99479142 56.0636257,5.08282261 C55.9214035,4.02850682 56.703501,3.09844834 57.6402963,2.72954386 C59.4684756,1.99847173 61.7608733,2.62874074 62.9147446,4.23847173 C64.0243275,5.74053801 64.112655,7.71505653 63.9192827,9.50443665 C63.6857388,11.204117 62.7350955,12.7905185 61.3255984,13.774347 C59.346963,15.1865887 56.8388616,15.6244834 54.4525224,15.5941676 C52.1587524,15.5319142 49.8884366,15.0138012 47.7632125,14.1569747 C44.2092788,12.7282651 40.8832749,10.7536218 37.213193,9.61235088 C35.9958207,9.13977388 34.7010994,8.88414815 33.3993918,8.80530214 C32.3630409,8.79844055 31.3805848,8.75003509 30.4022456,8.81640546 C29.2083275,8.93118129 28.0213957,9.1757037 26.9035789,9.61359844 C23.1713684,10.7744561 19.7955867,12.7987524 16.1739103,14.2303314 C13.115883,15.4200078 9.72775049,15.9728031 6.48196491,15.3122183 C4.66626121,14.9446862 2.85879142,14.1418791 1.63318519,12.7116725 C0.584358674,11.4956725 0.0814658869,9.86797661 0.130994152,8.27334113 C0.0729824561,6.76853021 0.403212476,5.16977778 1.39814425,3.99794152 C2.32383626,2.88711111 3.81492398,2.32333723 5.24650292,2.4477193 C6.16807797,2.49051072 7.10225341,2.89260039 7.67151657,3.63465107 C8.11926706,4.22187914 8.14683821,5.02618324 7.95059649,5.71284211 C7.71156335,6.33051072 7.2182768,6.81281871 6.68219883,7.18309552 C6.95578947,6.72149708 7.12159064,6.11218713 6.79822222,5.62987914 C6.40024951,4.98738402 5.42053801,4.92251072 4.90242495,5.45023002 C4.26404678,6.10669786 4.12993372,7.17897856 4.55834698,7.98315789 C5.0225653,8.82613645 5.98306433,9.30694737 6.91287329,9.40500585 C8.31962573,9.52664327 9.53974269,8.65472125 10.5719766,7.80912281 C12.7081793,5.96984016 14.6315478,3.86545029 17.0014191,2.30948928 C18.9553528,0.999547758 21.2573567,0.113777778 23.6327173,0.124881092 L23.6328421,0.124756335 Z" id="line"></path>
            </g>
        </g>
    </g>
</svg>