<?xml version="1.0" encoding="UTF-8"?>
<svg width="64px" height="64px" viewBox="0 0 64 64" version="1.1" xmlns="http://www.w3.org/2000/svg" xmlns:xlink="http://www.w3.org/1999/xlink">
    <!-- Generator: Sketch 41.2 (35397) - http://www.bohemiancoding.com/sketch -->
    <title>icon/frontend/markup/html</title>
    <desc>Created with Sketch.</desc>
    <defs></defs>
    <g id="Icons" stroke="none" stroke-width="1" fill="none" fill-rule="evenodd" stroke-linecap="round" stroke-opacity="0.4" stroke-linejoin="round">
        <g id="icon/frontend/markup/html" stroke="#000000" stroke-width="0.5">
            <g id="outline" transform="translate(4.000000, 0.000000)">
                <polygon id="line" points="5.07833962 56.5852075 0.0955471698 0.697358491 54.8478491 0.697358491 49.8597736 56.5764528 27.4381887 62.7924528"></polygon>
                <polygon id="line" points="44.0046792 18.976 17.7750943 18.976 18.4015094 25.9950189 27.4598491 25.9950189 41.5338868 25.9950189 43.3809811 25.9950189 43.2137358 27.8356226 41.6030189 45.8810566 41.4999245 47.0390943 27.4716981 50.927017 27.4716981 50.9281509 27.4401509 50.9369057 13.3993962 47.0390943 12.4390943 36.2766792 19.3198491 36.2766792 19.8078491 41.7433962 27.4416604 43.8046792 27.448 43.8029908 35.0928302 41.7390189 35.8884528 32.8493585 12.1328302 32.8493585 10.4481509 13.9604528 10.2840755 12.1215094 44.6184151 12.1215094 44.4544906 13.9604528 44.1421887 17.4353208"></polygon>
            </g>
        </g>
    </g>
</svg>