<?xml version="1.0" encoding="UTF-8"?>
<svg width="64px" height="64px" viewBox="0 0 64 64" version="1.1" xmlns="http://www.w3.org/2000/svg" xmlns:xlink="http://www.w3.org/1999/xlink">
    <!-- Generator: Sketch 41.2 (35397) - http://www.bohemiancoding.com/sketch -->
    <title>icon/frontend/markup/react</title>
    <desc>Created with Sketch.</desc>
    <defs></defs>
    <g id="Icons" stroke="none" stroke-width="1" fill="none" fill-rule="evenodd" stroke-linecap="round" stroke-opacity="0.4" stroke-linejoin="round">
        <g id="icon/frontend/markup/react" stroke="#000000" stroke-width="0.5">
            <g id="outline" transform="translate(0.500000, 4.000000)">
                <ellipse id="line" cx="31.3704918" cy="28.0641686" rx="31.2355972" ry="11.9007026"></ellipse>
                <ellipse id="line" cx="31.2805621" cy="28.0192037" rx="5.72552693" ry="5.72552693"></ellipse>
                <path d="M15.7395485,1.02391382 C10.0476972,4.31020209 12.4258667,19.0849748 21.0513386,34.0242923 C29.6768106,48.9636098 41.2832944,58.4102564 46.9751457,55.1239681 C52.666997,51.8376799 50.2888275,37.0629072 41.6633555,22.1235897 C33.0378835,7.18427221 21.4313998,-2.26237446 15.7395485,1.02391382 Z" id="line"></path>
                <path d="M15.764534,55.1289443 C21.4563852,58.4152325 33.062869,48.9685859 41.688341,34.0292684 C50.313813,19.0899509 52.6919824,4.3151782 47.0001311,1.02888993 C41.3082799,-2.25739834 29.7017961,7.18924832 21.0763241,22.1285658 C12.4508521,37.0678833 10.0726827,51.842656 15.764534,55.1289443 Z" id="line"></path>
            </g>
        </g>
    </g>
</svg>