<?xml version="1.0" encoding="UTF-8"?>
<svg width="64px" height="64px" viewBox="0 0 64 64" version="1.1" xmlns="http://www.w3.org/2000/svg" xmlns:xlink="http://www.w3.org/1999/xlink">
    <!-- Generator: Sketch 41.2 (35397) - http://www.bohemiancoding.com/sketch -->
    <title>icon/backend/code/meteor</title>
    <desc>Created with Sketch.</desc>
    <defs></defs>
    <g id="Icons" stroke="none" stroke-width="1" fill="none" fill-rule="evenodd" stroke-linecap="round" stroke-opacity="0.4" stroke-linejoin="round">
        <g id="icon/backend/code/meteor" stroke="#000000" stroke-width="0.5">
            <g id="outline" transform="translate(0.000000, 1.000000)">
                <path d="M16.5575,45.3575 L29.751,59.62425 C29.751,59.62425 30.39525,60.05475 30.88775,59.55275 C31.38075,59.05075 31.00175,58.54875 31.00175,58.54875 L16.5575,45.3575 Z" id="line"></path>
                <path d="M47.04,17.09125 L60.23375,31.358 C60.23375,31.358 60.878,31.7885 61.3705,31.28625 C61.863,30.78425 61.48425,30.282 61.48425,30.282 L47.04,17.09125 Z" id="line"></path>
                <path d="M9.273,30.89575 L38.383,62.27825 C38.383,62.27825 39.6855,63.19675 40.6815,62.125 C41.67725,61.0535 40.9115,59.982 40.9115,59.982 L9.2725,30.89575 L9.273,30.89575 Z" id="line"></path>
                <path d="M32.08,10.2985 L61.1905,41.681 C61.1905,41.681 62.493,42.5995 63.48875,41.528 C64.4845,40.45625 63.71875,39.38475 63.71875,39.38475 L32.08,10.29825 L32.08,10.2985 Z" id="line"></path>
                <path d="M5.26325,17.3105 L46.93,62.23 C46.93,62.23 48.79425,63.5445 50.22,62.0105 C51.645,60.47675 50.54875,58.943 50.54875,58.943 L5.26325,17.3105 Z" id="line"></path>
                <path d="M17.4345,5.5875 L59.1015,50.50675 C59.1015,50.50675 60.9655,51.82175 62.391,50.28775 C63.8165,48.75425 62.72,47.22025 62.72,47.22025 L17.4345,5.5875 Z" id="line"></path>
                <path d="M0.11,0.1095 L54.825,58.0665 C54.825,58.0665 56.68925,59.3815 58.1145,57.84725 C59.54,56.31325 58.4435,54.77975 58.4435,54.77975 L0.11,0.10925 L0.11,0.1095 Z" id="line"></path>
            </g>
        </g>
    </g>
</svg>