<?xml version="1.0" encoding="UTF-8"?>
<svg width="64px" height="64px" viewBox="0 0 64 64" version="1.1" xmlns="http://www.w3.org/2000/svg" xmlns:xlink="http://www.w3.org/1999/xlink">
    <!-- Generator: Sketch 41.2 (35397) - http://www.bohemiancoding.com/sketch -->
    <title>icon/backend/code/nodejs</title>
    <desc>Created with Sketch.</desc>
    <defs></defs>
    <g id="Icons" stroke="none" stroke-width="1" fill="none" fill-rule="evenodd" stroke-linecap="round" stroke-opacity="0.4" stroke-linejoin="round">
        <g id="icon/backend/code/nodejs" stroke="#000000" stroke-width="0.5">
            <g id="outline" transform="translate(3.000000, 0.000000)">
                <path d="M26.4406584,0.812567911 C28.0205753,-0.0918078416 30.0787155,-0.0959186403 31.6572621,0.812567911 C39.5993255,5.30019003 47.5441296,9.78096079 55.4848227,14.2713234 C56.9784129,15.1126669 57.9773372,16.7748 57.9622641,18.4958544 L57.9622641,45.4955815 C57.9732262,47.2878897 56.875643,48.9897605 55.2998368,49.8119203 C47.3838085,54.2748775 39.4718908,58.743316 31.5572328,63.2062734 C29.9444294,64.1284625 27.8451813,64.0572085 26.2830777,63.0596548 C23.9097766,61.6839074 21.5323645,60.3150114 19.1590633,58.9406343 C18.673989,58.6515082 18.1272528,58.4213034 17.7846862,57.9513021 C18.0875151,57.5429626 18.6287702,57.4922628 19.0686257,57.3141281 C20.0593282,56.9989669 20.9691851,56.4933388 21.8790419,56.0027833 C22.1092466,55.8452028 22.3901512,55.9054945 22.6107641,56.0466319 C24.6401285,57.2099879 26.6516793,58.4076008 28.6878951,59.5599946 C29.1222695,59.8107534 29.5621249,59.4777786 29.9334672,59.2708684 C37.7015067,54.8805351 45.4791383,50.5066453 53.2458077,46.1149417 C53.5335635,45.9765449 53.6925145,45.6709755 53.6692199,45.3558144 C53.6747009,36.4490835 53.6705902,27.5409822 53.6719603,18.6342513 C53.7048468,18.2766118 53.4979366,17.9477479 53.1745536,17.8011294 C45.2859307,13.3587261 37.4014184,8.90947143 29.5141656,4.46569784 C29.2318908,4.27386056 28.8673999,4.2724903 28.5851252,4.46432758 C20.6978723,8.90947143 12.8147304,13.3628369 4.92747758,17.8052402 C4.60546501,17.9518587 4.38896293,18.2752415 4.42733038,18.6342513 C4.42870066,27.5409822 4.42733038,36.4490835 4.42733038,45.3571845 C4.39992506,45.6723459 4.56983809,45.9710638 4.85622373,46.1067202 C6.96095276,47.3002222 9.06842231,48.4855024 11.1745216,49.6748936 C12.3611722,50.3134377 13.8177653,50.6930015 15.1249993,50.2038164 C16.2787636,49.789996 17.0872207,48.6129373 17.0652964,47.3879192 C17.0762585,38.5332584 17.0598153,29.6772273 17.073518,20.8239368 C17.0447424,20.4306704 17.4174548,20.1059173 17.7997591,20.1429145 C18.8110156,20.1360632 19.8236424,20.1292118 20.834899,20.145655 C21.256941,20.1360632 21.5474374,20.5594754 21.4953673,20.9554824 C21.4912565,29.8663242 21.5063295,38.7771658 21.488516,47.6880075 C21.4912565,50.0626789 20.5156269,52.6470012 18.3190901,53.808987 C15.6128141,55.2107695 12.2679941,54.9134216 9.59460457,53.5691904 C7.28022482,52.4140559 5.07135555,51.050641 2.79808377,49.8132904 C1.21816673,48.9952415 0.126064499,47.2865194 0.137026629,45.4955815 L0.137026629,18.4958544 C0.120583434,16.739173 1.15924528,15.0468942 2.69942459,14.2178831 C10.6140827,9.75081493 18.5273705,5.2810063 26.4406584,0.812567911 L26.4406584,0.812567911 Z" id="line"></path>
                <path d="M33.3454302,19.5153325 C36.7971309,19.2933494 40.4927392,19.383787 43.5991328,21.0842874 C46.0039503,22.3874107 47.3372194,25.1224622 47.3796975,27.7944815 C47.3125544,28.1548614 46.9357313,28.3535501 46.5917944,28.3288853 C45.5901297,28.327515 44.5884652,28.3425879 43.5868006,28.3220339 C43.162018,28.3384772 42.91537,27.9465811 42.8619295,27.5711281 C42.5741737,26.2926695 41.8767081,25.0265437 40.6736143,24.4099236 C38.8264953,23.484994 36.6847691,23.5315831 34.6704776,23.5507668 C33.200182,23.6288719 31.6188948,23.7563066 30.3733227,24.6209448 C29.4168767,25.2759319 29.1263803,26.5982391 29.4675765,27.6629358 C29.7895891,28.4275445 30.6720406,28.6741923 31.394171,28.9016567 C35.5542995,29.9896481 39.9624461,29.8813971 44.0430992,31.3133254 C45.7326375,31.8970587 47.3851786,33.0316391 47.963431,34.8006529 C48.719818,37.1712136 48.3882136,40.0049244 46.7014157,41.9082242 C45.33389,43.4744386 43.3415228,44.3267443 41.3546367,44.7898944 C38.7113929,45.3791088 35.9681198,45.3941817 33.2837683,45.1324609 C30.7597376,44.8447049 28.1329373,44.1814961 26.1844185,42.4618117 C24.5181749,41.0148106 23.7042365,38.7607226 23.7850823,36.5847396 C23.804266,36.2175083 24.1701272,35.9612687 24.5222856,35.9914145 C25.5308015,35.9831927 26.5393176,35.9804523 27.5478336,35.9927848 C27.9506919,35.9640091 28.2494098,36.3120567 28.2699638,36.6916205 C28.45632,37.9097872 28.913989,39.1882458 29.9759453,39.9103759 C32.0258637,41.2326829 34.5978535,41.1422454 36.9451198,41.1792427 C38.8895276,41.0929157 41.0723618,41.0668807 42.6591301,39.781571 C43.4963629,39.0484784 43.744381,37.8220902 43.5182872,36.7669851 C43.2730095,35.8763121 42.3412285,35.4611214 41.5409929,35.1898086 C37.4343049,33.8907963 32.9768286,34.3621678 28.9098782,32.8932423 C27.2587073,32.309509 25.6623471,31.2064445 25.0279138,29.5100548 C24.1427218,27.1093483 24.5483207,24.1399812 26.4118827,22.3010839 C28.2288558,20.4717784 30.8515456,19.7674615 33.3454302,19.5153325 L33.3454302,19.5153325 Z" id="line"></path>
            </g>
        </g>
    </g>
</svg>