<?xml version="1.0" encoding="UTF-8"?>
<svg width="64px" height="64px" viewBox="0 0 64 64" version="1.1" xmlns="http://www.w3.org/2000/svg" xmlns:xlink="http://www.w3.org/1999/xlink">
    <!-- Generator: Sketch 41.2 (35397) - http://www.bohemiancoding.com/sketch -->
    <title>icon/backend/data/mariadb</title>
    <desc>Created with Sketch.</desc>
    <defs></defs>
    <g id="Icons" stroke="none" stroke-width="1" fill="none" fill-rule="evenodd" stroke-linecap="round" stroke-opacity="0.4" stroke-linejoin="round">
        <g id="icon/backend/data/mariadb" stroke="#000000" stroke-width="0.5">
            <g id="outline" transform="translate(7.000000, 16.000000)">
                <path d="M48.2981622,0.412972973 C47.5448649,0.437189189 47.7831351,0.65427027 46.155027,1.0547027 C44.5109189,1.45945946 42.5027027,1.33535135 40.7323243,2.07783784 C35.4475676,4.29405405 34.3868108,11.8698378 29.5824865,14.5833514 C25.9911351,16.6118919 22.3677838,16.7736216 19.1102703,17.7945946 C16.9692973,18.4657297 14.6276757,19.8425946 12.6882162,21.5139459 C11.1824865,22.8116757 11.1435676,23.9528649 9.57037838,25.580973 C7.88778378,27.3219459 2.88324324,25.6103784 0.614702703,28.275027 C1.34551351,29.0136216 1.66551351,29.2207568 3.10551351,29.0291892 C2.80756757,29.5943784 1.05016216,30.0704865 1.39394595,30.9016216 C1.75589189,31.7764324 6.00454054,32.3692973 9.86659459,30.0376216 C11.6650811,28.9517838 13.0977297,27.3863784 15.899027,27.0127568 C19.5241081,26.5297297 23.6996757,27.3228108 27.896,27.9277838 C27.2737297,29.7829189 26.0244324,31.0170811 25.0237838,32.4947027 C24.7137297,32.8285405 25.6460541,32.8657297 26.7098378,32.6642162 C28.6233514,32.1911351 30.0019459,31.8101622 31.4458378,30.9695135 C33.2196757,29.9368649 33.4886486,27.2890811 35.6650811,26.7161081 C36.8776216,28.5798919 40.1762162,29.0205405 42.2229189,27.5295135 C40.427027,27.020973 39.9305946,23.1982703 40.5368649,21.5139459 C41.1111351,19.9195676 41.6784865,17.3690811 42.2566486,15.2614054 C42.8776216,12.9976216 43.1063784,10.1448649 43.8579459,8.99156757 C44.9883243,7.25664865 46.2376216,6.66118919 47.3221622,5.68302703 C48.4067027,4.70486486 49.3991351,3.75264865 49.3667027,1.51437838 C49.3567568,0.793081081 48.984,0.391351351 48.2981622,0.412972973 L48.2981622,0.412972973 Z" id="line"></path>
            </g>
        </g>
    </g>
</svg>