<?xml version="1.0" encoding="UTF-8"?>
<svg width="64px" height="64px" viewBox="0 0 64 64" version="1.1" xmlns="http://www.w3.org/2000/svg" xmlns:xlink="http://www.w3.org/1999/xlink">
    <!-- Generator: Sketch 41.2 (35397) - http://www.bohemiancoding.com/sketch -->
    <title>icon/backend/data/mongodb</title>
    <desc>Created with Sketch.</desc>
    <defs></defs>
    <g id="Icons" stroke="none" stroke-width="1" fill="none" fill-rule="evenodd" stroke-linecap="round" stroke-opacity="0.4" stroke-linejoin="round">
        <g id="icon/backend/data/mongodb" stroke="#000000" stroke-width="0.5">
            <g id="outline" transform="translate(18.000000, 0.000000)">
                <path d="M14.0818054,3.55271368e-15 C13.783921,1.5977433 13.4950635,2.20253879 12.6465444,2.98787024 C12.2854725,3.32186178 11.8882934,3.61974612 11.5181946,3.95373766 C10.2724965,5.07306065 9.09901269,6.25557123 8.09703808,7.60056417 C7.02284908,8.82820874 6.11114245,10.1822285 5.29873061,11.590409 C5.23554302,11.6626234 5.16332863,11.725811 5.11819464,11.8070522 C4.63074753,12.7368124 4.09816643,13.6394922 3.66488011,14.5963329 C3.1864598,15.6434415 2.79830748,16.7266573 2.36502116,17.7918195 C2.32891396,17.8550071 2.28377997,17.9181946 2.25669958,17.990409 C1.37207334,20.4908322 0.722143865,23.0454161 0.370098731,25.6722144 C0.352045134,25.7534556 0.343018336,25.8346968 0.324964739,25.9159379 C0.306911142,26.1055007 0.288857546,26.2950635 0.270803949,26.4755994 C0.243723554,26.6651622 0.225669958,26.854725 0.198589563,27.0442877 C0.180535966,27.2338505 0.153455571,27.4234133 0.135401975,27.612976 C0.117348378,27.8025388 0.0992947814,28.0011283 0.0902679831,28.1906911 C0.0812411848,28.3531735 0.0722143865,28.5066291 0.0631875882,28.6691114 C0.126375176,29.4093089 0.0451339915,30.1133992 0.0361071932,30.8445698 C0.0270803949,31.6028209 -2.83419122e-14,32.180536 0.0361071932,32.9026798 C0.0541607898,33.1825106 0.0451339915,33.4352609 0.0631875882,33.7060649 C0.343018336,36.9827927 1.18251058,40.1060649 2.54555712,43.0939351 C4.87447109,48.1760226 8.28660085,52.4005642 12.6555712,55.8668547 C12.8180536,55.9932299 12.9715092,56.1376587 13.1249647,56.2730606 C13.4409027,55.9571227 13.4860367,55.5238364 13.5763047,55.1266573 C13.874189,53.7184767 14.1179126,52.3102962 14.1901269,50.8660085 C14.0366714,50.8479549 13.8200282,50.9111425 13.8651622,50.5771509 C13.9915374,50.6042313 14.099859,50.6403385 14.2081805,50.6674189 C14.1991537,50.7396333 14.1991537,50.8028209 14.1901269,50.8750353 C14.1179126,52.319323 13.874189,53.7275035 13.5763047,55.1356841 C13.4860367,55.5328632 13.4409027,55.9661495 13.1249647,56.2820874 C13.3235543,57.0493653 13.5401975,57.8076164 13.7207334,58.583921 C13.819426,59.0235517 13.8735304,59.4721 13.9450915,59.9118389 C13.9734838,60.3622003 14.0186178,60.8135402 14.0186178,61.2648801 C14.0366714,61.9148096 14.0276446,62.5557123 14.054725,63.2056417 C14.0637518,63.3500705 14.1088858,63.5667137 14.1991537,63.6028209 C14.6595205,63.77433 15.128914,64.0090268 15.7156559,63.9819464 L15.7156559,63.3229901 C15.7246827,61.8787024 15.7156559,60.4253879 15.751763,58.9811001 C15.7698166,58.2409027 15.842031,57.4916784 16.1489422,56.8056417 C16.3114245,56.4445698 16.5100141,56.0925247 16.6905501,55.7404795 C17.054694,55.4676267 17.432174,55.2157548 17.7827927,54.9280677 C20.2110014,52.9692525 22.2239774,50.6313117 23.8849083,48.0045134 C24.4084626,47.1830748 24.8688293,46.3165021 25.3562764,45.4770099 C25.3472496,45.2784203 25.37433,45.1069111 25.5819464,45.02567 C25.6180536,44.9534556 25.645134,44.8722144 25.6812412,44.8 C25.7624824,44.6284908 25.8437236,44.4660085 25.9249647,44.2944993 C25.9791255,44.1952045 26.0242595,44.0959097 26.0784203,43.996615 C26.1055007,43.9424542 26.1235543,43.8973202 26.1506347,43.8431594 C26.2679831,43.5181946 26.3853315,43.1842031 26.493653,42.8592384 C26.8908322,42.3537377 27.0262341,41.7399154 27.1887165,41.1351199 C27.2248237,41.0267983 27.2609309,40.9094499 27.2970381,40.8011283 C27.3782793,40.5393512 27.4595205,40.2685472 27.5407616,40.0067701 C27.5768688,39.8894217 27.6039492,39.7720733 27.6400564,39.654725 C27.703244,39.4110014 27.748378,39.248519 27.7844852,39.0950635 C27.7212976,39.1040903 27.6851904,39.1131171 27.6490832,39.1221439 C27.6851904,39.1131171 27.7212976,39.1040903 27.7754584,39.0950635 C27.8025388,38.9777151 27.838646,38.8603667 27.8657264,38.7430183 C27.9108604,38.5263752 27.9469676,38.4090268 27.974048,38.2826516 C28.0282087,38.0299013 28.0552891,37.8674189 28.0913963,37.7139633 C28.1365303,37.461213 28.1726375,37.2987306 28.1997179,37.1362482 C28.2358251,36.9557123 28.2538787,36.8834979 28.2719323,36.8022567 C28.2899859,36.6217207 28.3170663,36.4411848 28.3351199,36.2606488 C28.3531735,36.1703808 28.3712271,36.0891396 28.3892807,35.9988717 L28.4434415,35.4572638 C28.4976023,35.0149506 28.5337094,34.7170663 28.5607898,34.4101551 C28.3622003,34.5365303 28.2899859,34.5816643 28.1365303,34.5997179 C28.2899859,34.5816643 28.3622003,34.5365303 28.5607898,34.4101551 C28.6149506,34.2476728 28.6600846,34.0761636 28.6691114,33.9136812 C28.867701,31.2236953 28.7593794,28.551763 28.2990127,25.8978843 C28.0913963,24.706347 27.7122708,23.54189 27.4143865,22.3684062 C27.3692525,22.2149506 27.3331453,22.0614951 27.2880113,21.9080395 C27.2609309,21.8538787 27.2428773,21.7997179 27.2157969,21.7455571 C27.1255289,21.4657264 27.0533145,21.25811 26.9901269,21.0414669 C26.8005642,20.4908322 26.6110014,19.9492243 26.4214386,19.3985896 C26.3853315,19.2992948 26.3401975,19.2 26.3040903,19.1007052 C26.2499295,18.9653032 26.2138223,18.8750353 26.1777151,18.7757405 C26.1416079,18.6493653 26.1145275,18.5139633 26.0603667,18.396615 C25.4014104,16.9884344 24.7785614,15.5712271 24.0744711,14.1901269 C23.2349788,12.5472496 22.1878702,11.0126939 21.0685472,9.54132581 C19.9221439,8.04287729 18.6583921,6.64372355 17.322426,5.3167842 C16.3475317,4.35091678 15.6163611,3.23159379 15.0025388,2.01297602 C14.7901204,1.59699002 14.5863802,1.18100401 14.3743003,0.765018008 C14.2984485,0.5325811 14.2172073,0.324964739 14.0818054,3.55271368e-15 Z" id="line"></path>
            </g>
        </g>
    </g>
</svg>