<?xml version="1.0" encoding="UTF-8"?>
<svg width="64px" height="64px" viewBox="0 0 64 64" version="1.1" xmlns="http://www.w3.org/2000/svg" xmlns:xlink="http://www.w3.org/1999/xlink">
    <!-- Generator: Sketch 41.2 (35397) - http://www.bohemiancoding.com/sketch -->
    <title>icon/backend/data/psql</title>
    <desc>Created with Sketch.</desc>
    <defs></defs>
    <g id="Icons" stroke="none" stroke-width="1" fill="none" fill-rule="evenodd" stroke-linecap="round" stroke-opacity="0.4" stroke-linejoin="round">
        <g id="icon/backend/data/psql" stroke="#000000" stroke-width="0.5">
            <g id="outline" transform="translate(3.000000, 2.000000)">
                <path d="M44.6641463,44.8137073 C45.0787317,41.3599024 44.9544878,40.8534146 47.5270244,41.412878 L48.1801463,41.4702439 C50.1582439,41.5602439 52.7458537,41.1520976 54.2660488,40.4458537 C57.5385366,38.9274146 59.4790244,36.3921951 56.2521951,37.0583415 C48.8916585,38.5767805 48.3856098,36.084439 48.3856098,36.084439 C56.1579512,24.5522927 59.4070244,9.91331707 56.6025366,6.33 C48.9532683,-3.444 35.7125854,1.17790244 35.4910244,1.29790244 L35.4204878,1.31092683 C33.9661463,1.00917073 32.3385366,0.828878049 30.5101463,0.799317073 C27.1792683,0.744585366 24.6518049,1.67253659 22.7345854,3.12673171 C22.7345854,3.12673171 -0.886097561,-6.60468293 0.212780488,15.3649756 C0.446487805,20.0385366 6.91185366,50.729122 14.6230244,41.459122 C17.4414146,38.0694146 20.165122,35.2033171 20.165122,35.2033171 C21.5176098,36.1018537 23.136878,36.5601951 24.8351707,36.395561 L24.966439,36.2836098 C24.9253171,36.7044878 24.9434634,37.1161463 25.0189756,37.6034634 C23.0328293,39.8230244 23.616439,40.2127317 19.644878,41.0301951 C15.6267805,41.8583415 17.9874146,43.3327317 19.5282439,43.7180488 C21.3967317,44.1853171 25.7192195,44.8472195 28.6406341,40.758439 L28.5242927,41.2249756 C29.303561,41.8483902 29.250878,45.7058049 29.3613659,48.4618537 C29.472,51.2180488 29.6565366,53.79 30.2183415,55.3063902 C30.7801463,56.8224878 31.4430732,60.7283415 36.6626341,59.6097073 C41.0249268,58.674878 44.3601951,57.3294146 44.6641463,44.813561" id="line"></path>
            </g>
        </g>
    </g>
</svg>