<?xml version="1.0" encoding="UTF-8"?>
<svg width="64px" height="64px" viewBox="0 0 64 64" version="1.1" xmlns="http://www.w3.org/2000/svg" xmlns:xlink="http://www.w3.org/1999/xlink">
    <!-- Generator: Sketch 41.2 (35397) - http://www.bohemiancoding.com/sketch -->
    <title>icon/frontend/logic/jquery</title>
    <desc>Created with Sketch.</desc>
    <defs></defs>
    <g id="Icons" stroke="none" stroke-width="1" fill="none" fill-rule="evenodd" stroke-linecap="round" stroke-opacity="0.4" stroke-linejoin="round">
        <g id="icon/frontend/logic/jquery" stroke="#000000" stroke-width="0.5">
            <g id="outline">
                <path d="M63.6649215,17.6792461 C63.633089,17.6561257 63.6002513,17.632 63.5682513,17.6082094 C63.0053194,18.0310785 62.4685236,18.4993508 61.8727539,18.871288 C58.9692984,20.6817173 55.7609215,21.1047539 52.4947435,20.460733 C46.9691309,19.3713927 42.7772984,16.298555 40.2642094,11.2187644 C38.5646911,7.78253403 38.1316021,4.18027225 39.7778429,0.537465969 C39.8066597,0.473968586 39.7816963,0.38617801 39.7816963,0.111413613 C38.7263665,1.60435602 37.7623455,2.92104712 36.855288,4.27543455 C36.4875393,4.82663874 36.1765864,5.43715183 35.9550995,6.06106806 C34.5412356,10.0446492 35.2561257,13.8325445 37.4024712,17.3009424 C40.3957277,22.1384712 44.7964817,24.9846283 50.5067225,25.5103665 C53.728,25.8074136 56.8368586,25.179644 59.3393927,22.9816963 C60.588733,21.8849843 61.5428691,20.4493403 62.6102618,19.1494031 C62.9924188,18.6851518 63.315267,18.1714764 63.6649215,17.6792461 L63.6649215,17.6792461 Z" id="line"></path>
                <path d="M63.3264921,30.3281257 C63.1366702,30.5045445 62.9582408,30.692356 62.758199,30.8555393 C61.9164817,31.5449634 61.1225131,32.3163141 60.2109319,32.8976754 C55.7153508,35.7644398 50.7628901,36.2585131 45.6246283,35.4916859 C42.4546178,35.0183874 39.5168168,33.8348901 36.791288,32.1514555 C30.5531309,28.298555 26.1950995,23.046199 24.6388272,15.7270785 C23.9008168,12.2561675 23.9664921,8.83417801 25.2908901,5.49713089 C25.5725236,4.78726702 25.8975497,4.0951623 26.2026387,3.39518325 C24.4732984,5.59313089 22.8201885,7.82659686 21.2990995,10.1471832 C19.758911,12.497089 19.0314555,15.1584503 18.9493613,17.9486492 C18.8230366,22.1862199 19.7925864,26.2433508 22.0592251,29.7896545 C27.7619267,38.7122932 35.7666178,43.5659058 46.6280209,42.8506806 C50.1292565,42.6203141 53.3463455,41.4723351 56.151623,39.2770681 C59.2408796,36.8598115 61.0271832,33.3976126 63.3264921,30.3281257 L63.3264921,30.3281257 Z" id="line"></path>
                <path d="M9.52008377,8.43426178 C9.48087958,8.41197906 9.44167539,8.38936126 9.4024712,8.36774869 C7.72942408,10.6759372 6.03727749,12.970555 4.38802094,15.2954974 C1.57319372,19.2670157 0.0943246073,23.6893822 0.00469109948,28.5669529 C-0.0616544503,32.1744084 0.566450262,35.6751414 1.74642932,39.0691518 C5.44150785,49.7055497 13.0099267,56.6798743 23.0530681,61.1459686 C29.2555393,63.9038325 35.8007958,64.5178639 42.4847749,63.2748901 C48.134199,62.2242513 52.9804398,59.6699476 56.6418429,55.1812356 C58.7241885,52.6277696 60.5873927,49.894199 62.5447539,47.2397068 C62.5878115,47.1819058 62.5849634,47.0904293 62.5775916,47.1212565 C61.1788063,48.260356 59.8225759,49.5515812 58.2900942,50.5807749 C52.5890681,54.4063665 46.1863874,55.3048796 39.511288,54.7518325 C35.479623,54.4180942 31.6354346,53.2987644 27.9899476,51.5263665 C22.3482304,48.7845864 17.4755183,45.0565026 13.5989948,40.1089005 C9.91765445,35.4099267 7.67313089,30.0729634 6.81348691,24.1566492 C6.17415707,19.7520419 6.5100733,15.4548272 8.19702618,11.3067225 C8.59459686,10.331644 9.07761257,9.39091099 9.52008377,8.43426178 L9.52008377,8.43426178 Z" id="line"></path>
            </g>
        </g>
    </g>
</svg>