<?xml version="1.0" encoding="UTF-8"?>
<svg width="64px" height="64px" viewBox="0 0 64 64" version="1.1" xmlns="http://www.w3.org/2000/svg" xmlns:xlink="http://www.w3.org/1999/xlink">
    <!-- Generator: Sketch 41.2 (35397) - http://www.bohemiancoding.com/sketch -->
    <title>icon/frontend/logic/js</title>
    <desc>Created with Sketch.</desc>
    <defs></defs>
    <g id="Icons" stroke="none" stroke-width="1" fill="none" fill-rule="evenodd" stroke-linecap="round" stroke-opacity="0.4" stroke-linejoin="round">
        <g id="icon/frontend/logic/js" stroke="#000000" stroke-width="0.5">
            <g id="outline">
                <polygon id="line" points="0 0 64 0 64 64 0 64"></polygon>
                <path d="M21.8,50.5 C22.8,52.2 23.6,53.5 25.6,53.5 C27.6,53.5 29,53 29,50 L29,29.4 L35,29.4 L35,50 C35,56.2 31.2,59 26,59 C22.1499192,59.2096337 18.5697786,57.02177 17,53.5 L21.8,50.5 Z" id="line"></path>
                <path d="M43,50 C44.3,52 46,53.6 49,53.6 C51.4,53.6 53,52.4 53,50.6 C53,48.6 51.4,47.9 48.6,46.6 L47,46 C42.8,44.2 40,42 40,37 C40,32.5 43.3,29 48.7,29 C52.5,29 55.3,30.4 57.3,34 L52.6,37 C51.6,35 50.4,34.3 48.6,34.3 C47.8927561,34.2994767 47.2158176,34.5870887 46.7252436,35.0965309 C46.2346697,35.6059731 45.9727981,36.2932792 46,37 C46,38.7 47.2,39.4 49.7,40.5 L51.2,41.2 C56.2,43.2 59.2,45.6 59.2,50.6 C59,56 54.8,59 49,59 C43.2,59 40,56.3 38,52.8 L43,50 Z" id="line"></path>
            </g>
        </g>
    </g>
</svg>